<svg width="134" height="134" viewBox="0 0 134 134" fill="none" xmlns="http://www.w3.org/2000/svg">
<rect width="134" height="134" rx="19" fill="#618CFB"/>
<path d="M85.4791 92.8947L79.858 73C79.4791 71.6734 79.1632 70.2844 78.9738 68.8949C78.216 63.2738 74.1105 56.5159 69.816 53.8001C71.0161 51.021 71.079 47.5474 68.9318 44.074C66.0263 39.4627 59.7105 37.3784 58.9524 37.126C57.5629 36.6837 56.1104 37.4419 55.668 38.8314C55.2257 40.2209 55.9839 41.6734 57.3734 42.1158C58.8259 42.5581 62.8681 44.3265 64.5104 46.9157C66.6577 50.326 64.5734 52.7262 64.1315 53.2315C62.2367 55.1263 60.1524 57.4631 58.0681 59.8632C55.9208 62.3263 56.4261 68.1368 56.868 71.358C57.0574 72.621 58.131 73.5687 59.4576 73.5687H66.8471C67.4154 73.5687 67.8577 73.3793 68.2996 73.1264L62.679 92.8949C62.2367 94.4738 62.9949 96.1792 64.5103 96.8106C64.8892 96.937 65.2681 97 65.647 97C67.0364 97 68.2366 96.1158 68.6784 94.7263L74.0471 75.6526L79.4158 94.7263C79.7946 96.1158 81.0578 97 82.4472 97C82.8261 97 83.205 96.937 83.5839 96.8106C85.1633 96.1788 85.9211 94.4738 85.4792 92.8949L85.4791 92.8947ZM66.8474 68.3263H61.7947C61.6682 66.3685 61.6682 64.6 61.8577 63.6524C63.4997 64.4102 65.5208 65.7997 67.1628 68.3263C67.0373 68.3893 66.9109 68.3263 66.8474 68.3263Z" fill="white"/>
<path d="M59.9628 46.7261C57.6891 44.1365 53.71 43.8841 51.1209 46.1578C48.5313 48.4315 48.2789 52.4105 50.5525 54.9997C52.8262 57.5893 56.8053 57.8417 59.3944 55.568C61.984 53.2948 62.2364 49.3156 59.9628 46.7261Z" fill="white"/>
</svg>
