<svg width="28" height="30" viewBox="0 0 28 30" fill="none" xmlns="http://www.w3.org/2000/svg">
<path d="M19.2857 12.4287L20.1178 10.643H20.118C20.2149 10.3388 20.0585 10.0117 19.7608 9.89663L18.1001 9.28577C17.7915 9.10989 17.5568 8.82813 17.4395 8.49304L16.6931 6.82518H16.6928C16.6253 6.68342 16.5033 6.5753 16.3543 6.52548C16.2056 6.47566 16.0429 6.48836 15.9036 6.56086L14.3643 7.22151C14.016 7.3675 13.6266 7.38269 13.2679 7.26436L11.5965 6.55013C11.4677 6.48437 11.317 6.47564 11.1815 6.52572C11.0457 6.57604 10.9373 6.68068 10.8823 6.81445L10.2251 8.48232C10.0691 8.81838 9.78262 9.07623 9.43208 9.19654L7.80707 9.94291C7.52233 10.1158 7.39502 10.4626 7.4999 10.7787L8.11424 12.3609C8.21439 12.5515 8.27517 12.7605 8.29286 12.975H9.53679e-05V3.11781C2.8107 1.31786 8.43572 0 13.4 0C18.8001 0 24.3318 1.31786 27.2356 3.11781V12.9571H19.1966C19.1961 12.777 19.2263 12.5984 19.2858 12.4285L19.2857 12.4287ZM27.236 14.7144C27.236 23.1501 19.2398 26.7968 14.4534 29.6928H14.4536C14.1268 29.8812 13.7591 29.9866 13.3821 30C13.0052 29.9865 12.6375 29.8812 12.3106 29.6928C7.90342 27.0142 0 22.8573 0 14.7144H8.34634C8.33563 14.8497 8.30673 14.9832 8.26064 15.1108L7.51051 16.7859C7.44823 16.9317 7.45147 17.0971 7.51997 17.2401C7.58848 17.3831 7.71504 17.4897 7.86775 17.5323L9.44646 18.193C9.78028 18.3614 10.0454 18.6404 10.1963 18.9824L10.9427 20.6074C11.0969 20.8875 11.4402 21.0023 11.7322 20.8715L13.2606 20.2074C13.6031 20.0965 13.9718 20.0965 14.3143 20.2074L15.9822 20.9216H15.982C16.2729 21.0364 16.6025 20.9007 16.7286 20.6144L17.3962 18.9288C17.5647 18.6032 17.8449 18.3494 18.1857 18.2143L19.8107 17.5001C19.9577 17.4386 20.0711 17.3165 20.1216 17.1653C20.1722 17.0143 20.1553 16.8487 20.0748 16.7109L19.3321 15.1965C19.2472 15.05 19.2016 14.8838 19.1999 14.7144L27.236 14.7144Z" fill="white"/>
</svg>
