<svg width="134" height="134" viewBox="0 0 134 134" fill="none" xmlns="http://www.w3.org/2000/svg">
<rect width="134" height="134" rx="19" fill="#618CFB"/>
<path d="M83.8313 78.0317C83.3195 77.288 83.0412 76.3915 83.06 75.4612C83.0671 75.1163 83.1102 74.7669 83.2036 74.4187C83.481 73.3828 84.1109 72.5353 84.9287 71.9661L82.0606 62.4243C81.7659 61.4458 81.0637 60.6435 80.1325 60.2229C79.2009 59.8027 78.1341 59.8052 77.2054 60.2321L68.9883 64.0042C67.1326 60.2806 65.7921 56.2148 65.0706 51.9198C65.6147 51.29 66.2948 50.4705 66.9862 49.554C67.7554 48.5303 68.538 47.3919 69.17 46.2091C69.7861 45.0126 70.3226 43.8161 70.349 42.3152C70.3494 41.7858 70.264 41.2015 70.0158 40.6223C69.6563 39.7417 68.8729 38.9801 68.0237 38.6022C67.1695 38.2088 66.2835 38.0849 65.3272 38.0815C63.9892 38.0882 62.4524 38.3381 60.5548 38.8491C60.6678 38.9885 60.7779 39.1312 60.8796 39.281C61.7225 40.5206 62.069 41.9541 61.9668 43.3448C63.5199 42.941 64.6458 42.7836 65.3266 42.7903C65.4032 42.7899 65.4735 42.792 65.5376 42.7949C65.4388 43.1075 65.2681 43.539 65.0136 43.9952C64.3348 45.2776 63.1863 46.8232 62.2242 47.9895C61.7425 48.5758 61.3064 49.0752 60.9942 49.4234C60.8427 49.5924 60.7214 49.7251 60.6372 49.8163C57.9926 50.2269 54.9676 50.7455 52.6039 51.2418C52.4863 51.2431 52.3523 51.2439 52.2046 51.2435C50.9541 51.2473 48.6518 51.172 46.8748 50.82C46.2135 50.6961 45.6284 50.5182 45.2526 50.3588C45.4631 50.0955 45.8075 49.7281 46.3139 49.3029C47.1233 48.614 48.3279 47.7614 49.9751 46.7758C50.0973 46.703 50.2087 46.6185 50.3125 46.5285C50.3028 46.5143 50.2919 46.5013 50.2823 46.4871C49.4428 45.2532 49.0954 43.8287 49.1925 42.4438C48.6488 42.3434 48.0679 42.4304 47.5561 42.7372C45.2032 44.1502 43.5384 45.3696 42.3477 46.5578C41.7534 47.1555 41.2717 47.7498 40.9046 48.4102C40.5414 49.0664 40.2882 49.8206 40.2878 50.6404C40.2786 51.4841 40.5916 52.3287 41.0423 52.9301C41.8476 53.9935 42.8416 54.4744 43.8104 54.852C45.2786 55.3931 46.874 55.6317 48.3819 55.7815C49.4998 55.8878 50.5574 55.9305 51.4077 55.946C53.4878 61.896 57.3415 66.8711 61.0353 71.5124C61.039 71.5204 61.0415 71.5291 61.0453 71.5375C61.2855 72.0602 61.6392 72.4938 62.0615 72.8287C62.6604 73.5791 63.5393 73.8645 64.2478 73.5929C64.7437 73.5941 65.248 73.4941 65.7285 73.2735L69.7521 71.4262C69.7057 71.0529 69.7086 70.67 69.763 70.285C69.7877 70.1109 69.8195 69.9359 69.8664 69.7618C70.0756 68.9813 70.4874 68.3095 71.026 67.781C72.0954 66.7314 73.674 66.2538 75.2234 66.669C77.5537 67.2934 78.9406 69.6961 78.3162 72.0264C78.2162 72.3993 78.0663 72.7446 77.883 73.0652L79.0402 76.9143L77.4905 77.4739C77.5641 77.2182 77.5641 76.939 77.467 76.6695L76.6589 74.4317C75.6281 75.1783 74.2825 75.4738 72.9588 75.1197C72.2958 74.9423 71.7133 74.6171 71.2278 74.1944L35.3605 87.1455C34.6808 87.3907 34.3288 88.1403 34.5745 88.8195L35.2291 90.6321C33.9342 91.0674 33 92.2886 33 93.73C33 95.5359 34.464 96.9999 36.2699 96.9999C38.0758 96.9999 39.5398 95.536 39.5398 93.73C39.5398 93.0713 39.3436 92.4594 39.0087 91.9467L71.8322 80.0948C71.8377 80.1161 71.8406 80.1375 71.8482 80.1584L72.3445 81.5332C72.4588 81.8492 72.8078 82.0137 73.1242 81.899L80.2168 79.3382C80.8713 79.9864 81.7649 80.3639 82.7028 80.3639C83.0392 80.3639 83.3812 80.3154 83.7202 80.2137C84.3053 80.0375 84.8109 79.7236 85.2126 79.3176C84.656 78.9904 84.1877 78.5501 83.8311 78.0328L83.8313 78.0317Z" fill="white"/>
<path d="M76.5042 73.9989C77.0161 73.6017 77.4325 73.0773 77.7012 72.4546C77.7765 72.2801 77.8443 72.1005 77.895 71.9118C78.4579 69.8116 77.2116 67.653 75.1111 67.09C73.6014 66.6849 72.0646 67.2189 71.1091 68.3288C70.7354 68.7632 70.4479 69.2826 70.2897 69.8731C70.2817 69.9032 70.2776 69.9334 70.2704 69.9639C70.1667 70.39 70.1382 70.8164 70.1738 71.2312C70.2692 72.3348 70.8262 73.351 71.703 74.0206C72.1002 74.324 72.5605 74.5575 73.0732 74.6948C74.3099 75.0271 75.5646 74.727 76.5042 73.9988L76.5042 73.9989ZM74.287 69.3434C74.3573 69.3521 74.4272 69.3643 74.4971 69.3827C75.3307 69.6062 75.8258 70.4633 75.6023 71.297C75.3788 72.1311 74.5213 72.6261 73.6876 72.4027C72.8539 72.1792 72.3593 71.3216 72.5828 70.4879C72.6276 70.3205 72.6991 70.1674 72.7895 70.0305C73.1122 69.5425 73.691 69.268 74.287 69.3434Z" fill="white"/>
<path d="M74.3697 69.8494C74.946 70.0038 75.2879 70.5965 75.1335 71.1731C74.979 71.7494 74.3868 72.0914 73.8101 71.9369C73.2338 71.7825 72.8914 71.1899 73.0458 70.6135C73.2007 70.0372 73.7929 69.6949 74.3696 69.8493" fill="white"/>
<path d="M91.3566 75.3147C91.3005 74.3865 90.9151 73.516 90.2881 72.851C89.8043 72.3374 89.1799 71.9449 88.4483 71.749C87.8954 71.6009 87.3389 71.5808 86.8078 71.6661C86.1704 71.7683 85.5719 72.0261 85.0621 72.4094C84.3841 72.9196 83.8631 73.6486 83.6267 74.5321C83.558 74.7891 83.517 75.0465 83.5007 75.3022C83.4404 76.2401 83.7221 77.1482 84.257 77.8786C84.5834 78.3243 85.0057 78.701 85.5025 78.9797C85.7833 79.1374 86.0855 79.2668 86.4111 79.3538C87.4758 79.6392 88.5547 79.4576 89.4345 78.9374C90.2895 78.4314 90.9553 77.6052 91.2328 76.5698C91.3446 76.1492 91.3818 75.7269 91.3567 75.3147L91.3566 75.3147ZM87.0241 77.0612C86.9366 77.0378 86.8537 77.0056 86.7738 76.9692C86.5553 76.8683 86.3687 76.7218 86.2222 76.5431C85.9267 76.1832 85.797 75.6977 85.9045 75.2135C85.9091 75.1909 85.9129 75.1687 85.9188 75.1461C86.1264 74.3727 86.8784 73.8923 87.6514 74.0049C87.7117 74.0137 87.7724 74.025 87.8331 74.0413C88.6672 74.2648 89.1618 75.1219 88.9388 75.9556C88.9137 76.0493 88.8793 76.1384 88.8387 76.223C88.7726 76.3619 88.6877 76.4875 88.5881 76.598C88.2072 77.0194 87.6104 77.2186 87.0241 77.0612Z" fill="white"/>
<path d="M88.3891 76.0453C88.4238 75.9779 88.4531 75.9067 88.4732 75.8306C88.6138 75.3049 88.3393 74.7705 87.8534 74.562C87.8061 74.5419 87.7596 74.5206 87.7081 74.5072C87.1318 74.3524 86.5397 74.6947 86.3847 75.271C86.2303 75.8473 86.5722 76.4403 87.149 76.5947C87.6495 76.7291 88.161 76.4881 88.3891 76.0453Z" fill="white"/>
<path d="M99.0219 88.5423L85.625 51.445C85.3798 50.7653 84.6302 50.4134 83.951 50.6586L80.9983 51.725C80.3191 51.9702 79.9671 52.7202 80.2123 53.3991L86.6579 71.2497C87.2727 71.1384 87.9189 71.153 88.5613 71.325C89.454 71.564 90.2065 72.0658 90.7628 72.7233C91.3089 73.3695 91.6626 74.1664 91.7685 75.0168C91.8358 75.5592 91.8049 76.1229 91.6546 76.6829C91.3391 77.8602 90.5685 78.7956 89.5838 79.3535L93.5442 90.3214C93.1412 90.986 92.9047 91.7632 92.9047 92.5973C92.9047 95.0281 94.8752 96.9988 97.3063 96.9988C99.7367 96.9988 101.708 95.028 101.708 92.5973C101.708 90.7751 100.6 89.2115 99.0219 88.5423Z" fill="white"/>
<path d="M50.6777 46.131C50.6915 46.1516 50.702 46.1729 50.7158 46.193C52.543 48.8803 56.2038 49.5775 58.8907 47.7494C60.3831 46.7345 61.2587 45.1542 61.4324 43.4893C61.5709 42.1564 61.2603 40.7698 60.4476 39.5745C60.3095 39.3711 60.1576 39.1836 59.9994 39.0028C58.0684 36.8001 54.7561 36.3285 52.2719 38.0176C50.6832 39.0987 49.7971 40.8196 49.7097 42.6012C49.6507 43.8107 49.9596 45.047 50.6777 46.1309L50.6777 46.131Z" fill="white"/>
</svg>
