<svg width="134" height="134" viewBox="0 0 134 134" fill="none" xmlns="http://www.w3.org/2000/svg">
<rect width="134" height="134" rx="19" fill="#647BFC"/>
<path d="M51.531 67.0936C52.5621 66.9063 53.2185 65.9683 53.1249 64.9373L52.1875 58.4684L54.0624 56.6872L54.3438 53.312C54.4375 52.3746 54.7189 51.4371 55.0939 50.687L48.8124 56.4998C48.3436 56.8748 48.1563 57.5309 48.25 58.0937L49.3752 65.5C49.5621 66.4374 50.3122 67.2812 51.5311 67.0935L51.531 67.0936Z" fill="white"/>
<path d="M71.2179 61.9371L66.5303 64.5621L66.2489 68.5932C66.1552 69.7185 65.7801 70.7496 65.2178 71.687L69.7177 69.1556V75.8118C69.7177 77.3116 70.9365 78.6241 72.53 78.6241C74.1239 78.6241 75.3423 77.4053 75.3423 75.8118L75.3432 64.3738C75.4368 62.2175 73.0933 60.905 71.2179 61.9365L71.2179 61.9371Z" fill="white"/>
<path d="M82.6562 94.4688H84.9999V97.0001H82.6562V94.4688Z" fill="white"/>
<path d="M69.9064 78.4377H65.6879C65.2192 78.4377 64.7505 78.9065 64.7505 79.4688V82.5626H81.3439V79.4688C81.3439 78.9065 80.9688 78.4377 80.4064 78.4377H75.3442C73.8436 80.0312 71.3127 79.9375 69.906 78.4377H69.9064Z" fill="white"/>
<path d="M61.0942 94.4688H63.4378V97.0001H61.0942V94.4688Z" fill="white"/>
<path d="M73.9371 87.625H80.4059C80.8746 87.625 81.3434 87.1563 81.3434 86.5939V83.5002L64.75 83.4998V86.5935C64.75 87.1559 65.125 87.6246 65.6874 87.6246L72.25 87.625V94.4685H64.375V96.9999H81.7186V94.4685H73.8437V87.625H73.9371Z" fill="white"/>
<path d="M65.8748 61.1869C65.7812 61.0933 65.5934 60.9996 65.4998 60.9055L59.4996 55.8433C58.2808 54.8122 58.1871 53.1247 59.2182 51.9058C60.2493 50.687 62.0305 50.5933 63.1557 51.5307L66.4367 54.2493V54.1557C66.6241 51.062 64.2804 48.4369 61.1867 48.1555C58.093 47.9682 55.468 50.3118 55.1865 53.4056L54.2491 67.7494C54.1554 69.812 55.0929 71.6869 56.6867 72.8116C55.6556 79.7492 53.2179 86.8737 50.968 93.155C50.4056 94.5612 51.1553 96.2488 52.6555 96.7175C54.0617 97.2798 55.7492 96.5302 56.2179 95.0299C58.6555 88.3738 61.1865 80.6861 62.3117 73.0921C63.9992 72.2484 65.3117 70.5608 65.4054 68.4986L65.8748 61.1869Z" fill="white"/>
<path d="M67.3753 42.3436C67.3753 45.2949 64.9825 47.6873 62.0316 47.6873C59.0803 47.6873 56.688 45.2949 56.688 42.3436C56.688 39.3923 59.0803 37 62.0316 37C64.9825 37 67.3753 39.3923 67.3753 42.3436Z" fill="white"/>
<path d="M59.8753 52.468C59.2192 53.2182 59.3129 54.4365 60.0626 55.0931L66.0627 60.1553C66.7188 60.7177 67.5625 60.7177 68.3127 60.3426L74.3128 56.4988C75.1566 55.9364 75.4381 54.8112 74.8752 53.8737C74.3128 53.03 73.1877 52.7485 72.2502 53.3114L67.3752 56.4051L62.4066 52.1861C61.6565 51.6242 60.5312 51.7179 59.8753 52.468Z" fill="white"/>
</svg>
