<svg xmlns="http://www.w3.org/2000/svg" width="88" height="88" viewBox="0 0 88 88" fill="none">
  <rect width="88" height="88" rx="44" fill="url(#paint0_linear_51_245)" />
  <path
    d="M31.8651 39.5398C30.2184 37.2887 30.8068 33.4898 30.8068 33.4898H33.571V31.1401H28.1728C28.1728 31.1401 27.0395 38.4106 30.5778 41.9922C30.9136 41.2499 31.3045 40.4758 31.7626 39.6663C31.7912 39.62 31.8257 39.5776 31.8651 39.5398Z"
    fill="white"
  />
  <path
    d="M33.6436 43.7104C34.0898 43.8184 34.5441 43.8911 35.0019 43.9274C34.5799 43.1049 34.2526 42.2372 34.0265 41.3408C33.9397 41.7871 33.7816 42.6165 33.6436 43.7104Z"
    fill="white"
  />
  <path
    d="M52.479 43.9074C52.9407 43.881 53.3991 43.8149 53.8495 43.7099C53.7073 42.6199 53.5492 41.7789 53.4544 41.3403C53.2286 42.2303 52.9013 43.0918 52.479 43.9074Z"
    fill="white"
  />
  <path
    d="M59.3655 31.1401H53.9316V33.4898H56.7314C56.7314 33.4898 57.3278 37.3284 55.6456 39.5754C55.6698 39.5985 55.6924 39.6236 55.7125 39.6503C56.1825 40.4797 56.5813 41.2695 56.9248 42.0199C60.5067 38.4578 59.3654 31.1402 59.3654 31.1402L59.3655 31.1401Z"
    fill="white"
  />
  <path d="M41.5239 50.791H45.9586V55.5653H41.5239V50.791Z" fill="white" />
  <path
    d="M39.6021 48.0938V50.1986H47.8478V48.1095C46.5341 48.5899 45.1433 48.8254 43.7447 48.8045C42.3316 48.8279 40.9267 48.5866 39.6023 48.0938L39.6021 48.0938Z"
    fill="white"
  />
  <path
    d="M53.34 29H34.1441V37.19C34.1441 37.2611 33.8874 42.3988 36.9083 45.6135C38.5551 47.3393 40.8497 48.212 43.7443 48.212C46.6389 48.212 48.9293 47.3393 50.5603 45.6135C53.597 42.3988 53.3483 37.2613 53.3246 37.2098L53.34 29ZM48.6723 36.4602L46.6385 38.7468L46.9426 41.7915C46.9525 41.8962 46.906 41.9987 46.8203 42.0598C46.736 42.1232 46.6239 42.135 46.528 42.0915L43.744 40.8635L40.9244 42.0915C40.8855 42.1075 40.8439 42.1155 40.8021 42.1152C40.7395 42.1163 40.6784 42.097 40.6282 42.0598C40.5439 41.9976 40.499 41.8956 40.5098 41.7915L40.81 38.7468L38.7763 36.4602H38.776C38.708 36.3806 38.6857 36.2717 38.7168 36.1718C38.7493 36.0723 38.8319 35.9971 38.9341 35.9745L41.9235 35.3189L43.4675 32.6811V32.6808C43.5256 32.585 43.6319 32.5288 43.744 32.5348C43.8493 32.5351 43.9468 32.5905 44.0008 32.6808L45.5448 35.3186L48.5341 35.9742L48.5344 35.9745C48.6366 35.9971 48.719 36.0723 48.7515 36.1718C48.7818 36.2751 48.7512 36.3866 48.6724 36.4602H48.6723Z"
    fill="white"
  />
  <path d="M37.3823 56.1577H50.0947V60.0001H37.3823V56.1577Z" fill="white" />
  <path
    d="M45.078 35.7331L43.7431 33.415L42.3688 35.7331C42.3272 35.805 42.2567 35.8551 42.1754 35.8713L39.5571 36.444L41.3383 38.4502L41.338 38.4499C41.3934 38.5114 41.4207 38.5929 41.4132 38.675L41.1485 41.3407L43.6048 40.2667C43.6797 40.2311 43.7668 40.2311 43.8417 40.2667L46.3022 41.3407L46.0374 38.6712C46.0284 38.5896 46.0542 38.5078 46.1085 38.4461L47.8935 36.4399L45.2713 35.8673V35.8675C45.1912 35.851 45.1215 35.8022 45.078 35.7331Z"
    fill="white"
  />
  <path
    d="M33.0834 40.1563C32.9121 40.0404 32.7184 39.961 32.5146 39.9236H32.4396C32.3846 39.9172 32.3295 39.936 32.2895 39.9748C28.5261 46.5854 29.3751 50.9567 30.0621 52.7697H30.0624C30.2649 52.0317 30.6009 51.3371 31.0535 50.72C31.1028 50.6547 31.1775 50.6134 31.259 50.6054C31.3406 50.5972 31.4221 50.6228 31.4841 50.6768L33.2848 52.2249C32.0725 47.1345 33.4743 41.1675 33.5415 40.8953V40.8951C33.5492 40.8634 33.5611 40.8328 33.577 40.8044C33.6164 40.7452 33.577 40.6386 33.5297 40.5794V40.5791C33.412 40.4086 33.26 40.2648 33.0834 40.1565L33.0834 40.1563Z"
    fill="white"
  />
  <path
    d="M54.9915 39.9235C54.5846 40.0084 54.2232 40.2403 53.9766 40.575C53.9411 40.6342 53.8899 40.7408 53.9293 40.8001C53.945 40.8287 53.9571 40.8593 53.9648 40.891C54.032 41.1595 55.4338 47.1304 54.2215 52.2205L56.0222 50.6724C56.0762 50.6267 56.1448 50.6013 56.2156 50.6013H56.2473C56.3288 50.609 56.4032 50.6506 56.4525 50.7159C56.9045 51.3318 57.2406 52.0249 57.4439 52.7615C58.1309 50.9529 58.9761 46.5774 55.1967 39.9589C55.1967 39.9115 55.0587 39.9153 54.9915 39.9233L54.9915 39.9235Z"
    fill="white"
  />
</svg>
