<svg width="142" height="131" viewBox="0 0 142 131" fill="none" xmlns="http://www.w3.org/2000/svg">
<path d="M75.5903 124.781V99.4664C75.5903 96.0316 78.413 93.2496 81.8932 93.2496C94.3118 93.2496 101.068 80.6875 102.005 55.8896H81.8932C78.4134 55.8896 75.5903 53.1037 75.5903 49.6728V-3.77934C75.5903 -7.21281 78.413 -9.99478 81.8932 -9.99478H135.515C138.994 -9.99478 141.818 -7.20976 141.818 -3.77934V49.6733C141.818 61.5596 140.602 72.4672 138.213 82.1004C135.76 91.9758 131.994 100.609 127.022 107.764C121.909 115.117 115.507 120.886 108.006 124.904C100.448 128.948 91.6626 131 81.8905 131C78.4134 130.997 75.5903 128.213 75.5903 124.781ZM-5.69839 93.2475C-9.17813 93.2475 -12 96.0316 -12 99.4616V124.781C-12 128.213 -9.17813 130.995 -5.69839 130.995C4.06887 130.995 12.8588 128.943 20.4118 124.899C27.9168 120.882 34.3176 115.117 39.4303 107.759C44.4052 100.605 48.1709 91.9706 50.6244 82.0904C53.014 72.4572 54.228 61.5492 54.228 49.6681V-3.78455C54.228 -7.21802 51.4034 -10 47.925 -10H-5.69839C-9.17813 -10 -12 -7.21541 -12 -3.78455V49.6681C-12 53.1011 -9.17813 55.8848 -5.69839 55.8848H14.1314C13.2051 80.6849 6.54659 93.2475 -5.69839 93.2475Z" fill="#B081FA"/>
</svg>
