<svg xmlns="http://www.w3.org/2000/svg" width="88" height="88" viewBox="0 0 88 88" fill="none">
  <rect width="88" height="88" rx="44" fill="url(#paint0_linear_51_230)" />
  <path
    d="M45.4546 45.7071C45.4546 46.699 44.6504 47.5035 43.6582 47.5035C42.666 47.5035 41.8618 46.699 41.8618 45.7071C41.8618 44.7149 42.666 43.9106 43.6582 43.9106C44.6504 43.9106 45.4546 44.7149 45.4546 45.7071Z"
    fill="white"
  />
  <path
    d="M53.4302 36.6966L54.3527 35.7741L55.1333 36.5548C55.3439 36.7653 55.6849 36.7653 55.8955 36.5548C56.106 36.3443 56.106 36.0029 55.8955 35.7926L53.572 33.4694C53.3615 33.2589 53.0204 33.2589 52.8099 33.4694C52.5994 33.68 52.5994 34.0211 52.8099 34.2316L53.5905 35.012L52.668 35.9345C50.4223 33.8629 47.4618 32.5572 44.1973 32.4269V30.0779H47.2513C47.5488 30.0779 47.7902 29.8365 47.7902 29.5391C47.7902 29.2416 47.5488 29.0003 47.2513 29.0003L40.0657 29C39.7682 29 39.5269 29.2413 39.5269 29.5388C39.5269 29.8363 39.7682 30.0776 40.0657 30.0776H43.1197V32.4266C36.0271 32.7101 30.3652 38.5451 30.3652 45.7066C30.3652 53.0488 36.3161 59 43.6587 59C51.0008 59 56.9521 53.0489 56.9521 45.7066C56.9521 42.2293 55.6155 39.0656 53.4304 36.6963L53.4302 36.6966ZM43.1194 34.5692C43.1194 34.2717 43.3608 34.0303 43.6582 34.0303C43.9557 34.0303 44.197 34.2717 44.197 34.5692V36.0062C44.197 36.3036 43.9557 36.545 43.6582 36.545C43.3608 36.545 43.1194 36.3036 43.1194 36.0062V34.5692ZM33.9577 46.2458H32.5207C32.2233 46.2458 31.9819 46.0045 31.9819 45.707C31.9819 45.4095 32.2233 45.1682 32.5207 45.1682H33.9577C34.2552 45.1682 34.4965 45.4095 34.4965 45.707C34.4965 46.0045 34.2552 46.2458 33.9577 46.2458ZM37.1802 52.9477L36.1642 53.9637C35.9537 54.1742 35.6126 54.1742 35.402 53.9637C35.1915 53.7532 35.1915 53.4121 35.402 53.2016L36.418 52.1856C36.6286 51.9751 36.9696 51.9751 37.1802 52.1856C37.3907 52.3961 37.3907 52.7372 37.1802 52.9477ZM44.1971 56.8448C44.1971 57.1422 43.9557 57.3836 43.6582 57.3836C43.3608 57.3836 43.1194 57.1422 43.1194 56.8448V55.4078C43.1194 55.1103 43.3608 54.8689 43.6582 54.8689C43.9557 54.8689 44.1971 55.1103 44.1971 55.4078V56.8448ZM43.6582 48.5813C42.0734 48.5813 40.7839 47.2918 40.7839 45.707C40.7839 45.1087 40.9679 44.5534 41.2819 44.0928L35.3729 38.184C35.1624 37.9735 35.1624 37.6324 35.3729 37.4219C35.5834 37.2113 35.9245 37.2113 36.135 37.4219L42.0438 43.3306C42.5044 43.0166 43.0598 42.8327 43.658 42.8327C45.2428 42.8327 46.5323 44.1221 46.5323 45.707C46.532 47.2919 45.2431 48.5813 43.6582 48.5813ZM51.9147 53.9635C51.7041 54.174 51.3631 54.174 51.1525 53.9635L50.1365 52.9475C49.926 52.737 49.926 52.3959 50.1365 52.1854C50.3471 51.9749 50.6881 51.9749 50.8987 52.1854L51.9147 53.2014C52.1252 53.4119 52.1252 53.7532 51.9147 53.9635ZM51.9147 38.2129L50.8987 39.2289C50.6882 39.4394 50.3471 39.4394 50.1365 39.2289C49.926 39.0183 49.926 38.6772 50.1365 38.4667L51.1525 37.4507C51.363 37.2402 51.7041 37.2402 51.9147 37.4507C52.1252 37.6615 52.1252 38.0023 51.9147 38.2129ZM54.7962 46.246L53.3592 46.2463C53.0618 46.2463 52.8204 46.0052 52.8204 45.7074C52.8204 45.41 53.0615 45.1686 53.3592 45.1686L54.7962 45.1684C55.0937 45.1684 55.335 45.4095 55.335 45.7072C55.335 46.0047 55.094 46.246 54.7962 46.246Z"
    fill="white"
  />
</svg>
