<svg width="31" height="30" viewBox="0 0 31 30" fill="none" xmlns="http://www.w3.org/2000/svg">
<path d="M22.4486 14.0023C21.544 14.0054 20.6461 14.1608 19.7932 14.4624L15.8625 1.76034C15.7051 1.24955 15.3878 0.803045 14.9576 0.486022C14.5272 0.169227 14.0066 -0.00110902 13.4721 5.45125e-06H11.4218C10.8873 -0.00111079 10.3667 0.169227 9.93631 0.486022C9.50611 0.803039 9.18888 1.24952 9.03148 1.76034L3.07565 21.0035H2.94572C2.28264 21.0037 1.64682 21.2671 1.178 21.7362C0.708955 22.205 0.445541 22.8408 0.445312 23.5039V24.5041C0.446206 24.78 0.669458 25.0032 0.945394 25.0041H15.0374C15.7674 26.8062 17.1288 28.2808 18.8671 29.1519C20.6051 30.0232 22.6012 30.2316 24.4818 29.7379C26.3625 29.2443 27.9989 28.0825 29.0852 26.47C30.1714 24.8574 30.6333 22.9044 30.3841 20.9762C30.135 19.0478 29.192 17.2763 27.7315 15.9928C26.271 14.7094 24.393 14.0017 22.4487 14.0023L22.4486 14.0023ZM22.9487 17.2577L25.2441 15.5874V15.5876C26.1762 15.9984 27.0087 16.6056 27.6845 17.3678L26.8093 20.0633L25.389 20.5234L22.9487 18.7481V17.2577ZM21.9485 17.2577V18.7479L19.5082 20.5232L18.0878 20.0631L17.2127 17.3675V17.3678C17.8885 16.6056 18.721 15.9983 19.653 15.5876L21.9485 17.2577ZM9.98655 2.05526C10.0812 1.74896 10.2719 1.48105 10.5302 1.29108C10.7887 1.10109 11.1012 0.999288 11.4219 1.00019H13.4722C13.7928 0.999293 14.1053 1.10109 14.3639 1.29108C14.6222 1.48106 14.8128 1.74896 14.9075 2.05526L15.6625 4.50075H9.23176L9.98655 2.05526ZM7.8362 9.00154H17.0577L18.2929 13.0022H6.60074L7.8362 9.00154ZM14.5173 21.0035H4.12531L5.20537 17.5029H15.8374C15.1257 18.5484 14.6729 19.7484 14.5173 21.0035ZM16.4225 25.5493C15.9026 24.6746 15.5817 23.6963 15.4824 22.6837L17.7779 21.0133L19.1931 21.4734L20.1082 24.4089L19.2581 25.549L16.4225 25.5493ZM23.9586 28.8349V28.8347C23.463 28.9472 22.9564 29.0043 22.4483 29.0048C21.9417 29.0046 21.437 28.9476 20.9431 28.8347L20.0631 26.1391L20.913 25.0042H23.9836L24.8338 26.1394L23.9586 28.8349ZM25.6388 25.5493L24.7886 24.4092L25.7037 21.4737L27.1189 21.0136L29.4144 22.684V22.6837C29.3151 23.6964 28.9942 24.6747 28.4743 25.5494L25.6388 25.5493Z" fill="white"/>
</svg>
