<svg width="134" height="134" viewBox="0 0 134 134" fill="none" xmlns="http://www.w3.org/2000/svg">
<rect width="134" height="134" rx="19" fill="#647BFC"/>
<path d="M91.328 57.8831C84.5778 61.4444 77.8594 65.1221 71.2958 69.0325C68.9619 66.7344 67.0274 64.9052 66.529 62.7302C66.5563 62.6003 66.4425 61.258 66.4493 61.0682C66.4755 60.3858 66.5096 59.7033 66.5824 59.0232C66.793 57.1081 67.1412 55.2054 67.4552 53.3027C67.965 50.2013 66.6359 47.1156 63.3484 46.2411C62.1798 45.9304 60.8495 46.0479 59.6535 46.5055C59.2166 46.2682 58.7147 46.1033 58.1424 46.04C53.3096 45.5079 48.5655 44.4514 44.0149 42.7431C39.4711 41.0382 37.5275 48.2545 42.0167 49.9403C46.4546 51.6068 51.0485 52.5785 55.7243 53.2067C55.7083 53.2948 55.6935 53.3829 55.6765 53.4711C50.2155 54.5117 44.8604 55.9816 39.5883 57.7848C35.0332 59.3418 36.9904 66.5548 41.5865 64.982C45.9221 63.4985 50.3111 62.241 54.7695 61.2614C54.765 62.8907 54.9311 64.4962 55.3715 66.0396C56.4184 69.698 58.7068 72.6447 61.2774 75.3541C59.7093 76.4116 58.1321 77.45 56.4753 78.3459C53.5326 79.9379 50.2576 82.0564 49.1254 85.3827C47.0236 91.5584 53.511 94.0057 56.8053 97.776C59.9858 101.419 65.2806 96.1163 62.1206 92.4974C60.54 90.6885 58.3916 89.5756 56.7165 87.8842C55.9109 87.0673 56.0167 87.8051 56.8975 87.0108C58.1765 85.8549 59.6604 85.177 61.1431 84.3183C65.7984 81.6248 70.1669 78.4126 74.8097 75.6727C81.4883 71.7363 88.2601 67.949 95.1196 64.3267C99.4028 62.067 95.6066 55.6246 91.328 57.8831Z" fill="white"/>
<path d="M70.9018 47.7121C74.1592 47.7121 76.7997 45.0902 76.7997 41.856C76.7997 38.6218 74.1592 36 70.9018 36C67.6445 36 65.0039 38.6218 65.0039 41.856C65.0039 45.0902 67.6445 47.7121 70.9018 47.7121Z" fill="white"/>
</svg>
