<svg width="26" height="26" viewBox="0 0 26 26" fill="none" xmlns="http://www.w3.org/2000/svg">
<rect width="26" height="26" rx="13" fill="#F8F5EC"/>
<g clip-path="url(#clip0_22_3472)">
<path d="M20.0002 14.5125V19.6892H16.9989V14.8595C16.9989 13.6468 16.5656 12.8186 15.4789 12.8186C14.6496 12.8186 14.157 13.3762 13.9394 13.916C13.8604 14.109 13.84 14.3769 13.84 14.6475V19.689H10.8385C10.8385 19.689 10.8788 11.509 10.8385 10.6623H13.8403V11.9414C13.8342 11.9515 13.8257 11.9614 13.8203 11.971H13.8403V11.9414C14.2391 11.3277 14.9505 10.4503 16.5452 10.4503C18.5198 10.4503 20.0002 11.7404 20.0002 14.5125ZM7.69865 6.31104C6.67195 6.31104 6.00024 6.98498 6.00024 7.87045C6.00024 8.73711 6.65248 9.43053 7.65926 9.43053H7.67873C8.72557 9.43053 9.37647 8.73711 9.37647 7.87045C9.35655 6.98498 8.72557 6.31104 7.69865 6.31104ZM6.17863 19.6892H9.17905V10.6623H6.17863V19.6892Z" fill="#1885EC"/>
</g>
<defs>
<clipPath id="clip0_22_3472">
<rect width="14" height="14" fill="white" transform="translate(6.00024 6.00024)"/>
</clipPath>
</defs>
</svg>
