<svg width="26" height="26" viewBox="0 0 26 26" fill="none" xmlns="http://www.w3.org/2000/svg">
<rect width="26" height="26" rx="13" fill="#349CFF"/>
<g clip-path="url(#clip0_22_3476)">
<path d="M20.0002 8.65937C19.4796 8.88774 18.9249 9.03912 18.3465 9.11262C18.9415 8.75737 19.3956 8.19912 19.6091 7.52624C19.0544 7.85699 18.4419 8.09062 17.7891 8.22099C17.2624 7.66012 16.5116 7.31274 15.6926 7.31274C14.1036 7.31274 12.8244 8.60249 12.8244 10.1836C12.8244 10.4111 12.8436 10.6299 12.8909 10.8381C10.5047 10.7217 8.39337 9.57812 6.97499 7.83599C6.72737 8.26562 6.58212 8.75737 6.58212 9.28674C6.58212 10.2807 7.09399 11.1619 7.85699 11.672C7.39587 11.6632 6.94349 11.5294 6.56024 11.3185C6.56024 11.3272 6.56024 11.3386 6.56024 11.35C6.56024 12.7447 7.55512 13.9032 8.85974 14.1701C8.62612 14.234 8.37149 14.2646 8.10724 14.2646C7.92349 14.2646 7.73799 14.2541 7.56387 14.2156C7.93574 15.3522 8.99099 16.1879 10.2457 16.215C9.26924 16.9789 8.02937 17.4391 6.68712 17.4391C6.45174 17.4391 6.22599 17.4286 6.00024 17.3997C7.27162 18.2196 8.77837 18.6877 10.4032 18.6877C15.6847 18.6877 18.5722 14.3127 18.5722 10.5205C18.5722 10.3936 18.5679 10.2711 18.5617 10.1495C19.1314 9.74524 19.61 9.24037 20.0002 8.65937Z" fill="white"/>
</g>
<defs>
<clipPath id="clip0_22_3476">
<rect width="14" height="14" fill="white" transform="translate(6.00024 6.00024)"/>
</clipPath>
</defs>
</svg>
