<svg width="26" height="26" viewBox="0 0 26 26" fill="none" xmlns="http://www.w3.org/2000/svg">
<rect width="26" height="26" rx="13" fill="#349CFF"/>
<g clip-path="url(#clip0_22_3468)">
<path d="M19.9873 10.1163C19.9545 9.37241 19.8342 8.861 19.6619 8.41786C19.4841 7.94748 19.2107 7.52634 18.8523 7.17626C18.5023 6.82072 18.0783 6.54445 17.6134 6.36946C17.1677 6.19714 16.659 6.07684 15.9151 6.04405C15.1657 6.00847 14.9278 6.00024 13.027 6.00024C11.1262 6.00024 10.8883 6.00847 10.1417 6.04127C9.39779 6.07407 8.88639 6.19447 8.44336 6.36668C7.97287 6.54445 7.55173 6.81794 7.20164 7.17626C6.84611 7.52634 6.56994 7.95026 6.39485 8.41519C6.22253 8.861 6.10223 9.36963 6.06944 10.1135C6.03386 10.8629 6.02563 11.1009 6.02563 13.0016C6.02563 14.9024 6.03386 15.1403 6.06666 15.8869C6.09946 16.6308 6.21986 17.1422 6.39218 17.5854C6.56994 18.0557 6.84611 18.4769 7.20164 18.827C7.55173 19.1825 7.97564 19.4588 8.44058 19.6338C8.88639 19.8061 9.39502 19.9264 10.139 19.9592C10.8855 19.9921 11.1236 20.0002 13.0243 20.0002C14.9251 20.0002 15.163 19.9921 15.9096 19.9592C16.6535 19.9264 17.1649 19.8061 17.608 19.6338C18.5488 19.27 19.2927 18.5261 19.6565 17.5854C19.8287 17.1396 19.9491 16.6308 19.9819 15.8869C20.0147 15.1403 20.0229 14.9024 20.0229 13.0016C20.0229 11.1009 20.0201 10.8629 19.9873 10.1163ZM18.7266 15.8322C18.6965 16.516 18.5816 16.8852 18.4859 17.1313C18.2507 17.7412 17.7666 18.2253 17.1567 18.4605C16.9106 18.5563 16.5387 18.6711 15.8576 18.7011C15.1192 18.734 14.8977 18.7421 13.0298 18.7421C11.1618 18.7421 10.9376 18.734 10.2018 18.7011C9.51809 18.6711 9.14888 18.5563 8.90273 18.4605C8.59922 18.3484 8.32296 18.1706 8.09871 17.9381C7.86625 17.7111 7.68848 17.4376 7.5763 17.1341C7.48058 16.888 7.36574 16.516 7.33572 15.835C7.30281 15.0966 7.29469 14.875 7.29469 13.0071C7.29469 11.1391 7.30281 10.9149 7.33572 10.1792C7.36574 9.49548 7.48058 9.12627 7.5763 8.88012C7.68848 8.57651 7.86625 8.30035 8.10149 8.076C8.3284 7.84353 8.60189 7.66576 8.90551 7.55369C9.15165 7.45797 9.52364 7.34313 10.2046 7.313C10.943 7.2802 11.1646 7.27198 13.0324 7.27198C14.9032 7.27198 15.1246 7.2802 15.8604 7.313C16.5441 7.34313 16.9133 7.45797 17.1595 7.55369C17.463 7.66576 17.7393 7.84353 17.9635 8.076C18.196 8.30302 18.3737 8.57651 18.4859 8.88012C18.5816 9.12627 18.6965 9.49815 18.7266 10.1792C18.7594 10.9176 18.7676 11.1391 18.7676 13.0071C18.7676 14.875 18.7594 15.0938 18.7266 15.8322Z" fill="white"/>
<path d="M13.0269 9.40514C11.0415 9.40514 9.43053 11.016 9.43053 13.0015C9.43053 14.9871 11.0415 16.598 13.0269 16.598C15.0125 16.598 16.6233 14.9871 16.6233 13.0015C16.6233 11.016 15.0125 9.40514 13.0269 9.40514ZM13.0269 15.3344C11.7389 15.3344 10.694 14.2897 10.694 13.0015C10.694 11.7134 11.7389 10.6686 13.0269 10.6686C14.3151 10.6686 15.3598 11.7134 15.3598 13.0015C15.3598 14.2897 14.3151 15.3344 13.0269 15.3344Z" fill="white"/>
<path d="M17.6047 9.2631C17.6047 9.72676 17.2287 10.1027 16.765 10.1027C16.3013 10.1027 15.9254 9.72676 15.9254 9.2631C15.9254 8.79934 16.3013 8.42351 16.765 8.42351C17.2287 8.42351 17.6047 8.79934 17.6047 9.2631Z" fill="white"/>
</g>
<defs>
<clipPath id="clip0_22_3468">
<rect width="14" height="14" fill="white" transform="translate(6.00024 6.00024)"/>
</clipPath>
</defs>
</svg>
