<svg width="28" height="28" viewBox="0 0 28 28" fill="none" xmlns="http://www.w3.org/2000/svg">
<circle cx="14" cy="14" r="14" fill="#1663F9"/>
<path fill-rule="evenodd" clip-rule="evenodd" d="M15.5682 10.4489C15.8726 10.168 16.3471 10.1869 16.628 10.4913L19.0511 13.1163C19.3163 13.4036 19.3163 13.8464 19.0511 14.1337L16.628 16.7587C16.3471 17.0631 15.8726 17.0821 15.5682 16.8011C15.2638 16.5202 15.2449 16.0457 15.5258 15.7413L16.787 14.375L9.5 14.375C9.08579 14.375 8.75 14.0392 8.75 13.625C8.75 13.2108 9.08579 12.875 9.5 12.875L16.787 12.875L15.5258 11.5087C15.2449 11.2044 15.2638 10.7299 15.5682 10.4489Z" fill="white"/>
</svg>
