<svg width="23" height="23" viewBox="0 0 23 23" fill="none" xmlns="http://www.w3.org/2000/svg">
<g clip-path="url(#clip0_2219_434)">
<path d="M5.39994 6.68551L7.72353 9.00909L6.42796 10.3047L1.89258 5.76927L6.42796 1.23389L7.72353 2.52945L5.39994 4.85303H11.9712C13.9152 4.85303 15.7796 5.62529 17.1542 6.99991C18.5289 8.37454 19.3011 10.2389 19.3011 12.1829C19.3011 14.127 18.5289 15.9914 17.1542 17.366C15.7796 18.7406 13.9152 19.5129 11.9712 19.5129H3.72506V17.6804H11.9712C13.4292 17.6804 14.8275 17.1012 15.8585 16.0702C16.8895 15.0393 17.4686 13.641 17.4686 12.1829C17.4686 10.7249 16.8895 9.32664 15.8585 8.29567C14.8275 7.2647 13.4292 6.68551 11.9712 6.68551H5.39994Z" fill="#3DB0E5"/>
</g>
<defs>
<clipPath id="clip0_2219_434">
<rect width="21.9897" height="21.9897" fill="white" transform="translate(0.0605469 0.271973)"/>
</clipPath>
</defs>
</svg>
