<svg width="23" height="23" viewBox="0 0 23 23" fill="none" xmlns="http://www.w3.org/2000/svg">
<g clip-path="url(#clip0_2219_723)">
<path fill-rule="evenodd" clip-rule="evenodd" d="M17.6664 3.01084C17.8591 2.81816 18.1204 2.70992 18.3929 2.70992C18.6654 2.70992 18.9267 2.81816 19.1194 3.01084C19.3121 3.20351 19.4203 3.46484 19.4203 3.73732C19.4203 4.0098 19.3121 4.27112 19.1194 4.4638L10.5946 12.9886L8.6573 13.4729L9.14162 11.5357L17.6664 3.01084ZM18.3929 0.877441C17.6344 0.877441 16.907 1.17875 16.3707 1.71508L7.66641 10.4194C7.54899 10.5368 7.46568 10.6839 7.42541 10.845L6.50917 14.51C6.43111 14.8222 6.5226 15.1525 6.75017 15.3801C6.97775 15.6076 7.30804 15.6991 7.62027 15.6211L11.2852 14.7048C11.4463 14.6646 11.5935 14.5813 11.7109 14.4638L20.4152 5.75956C20.9515 5.22322 21.2528 4.4958 21.2528 3.73732C21.2528 2.97883 20.9515 2.25141 20.4152 1.71508C19.8788 1.17875 19.1514 0.877441 18.3929 0.877441ZM3.73309 2.82087C3.00409 2.82087 2.30494 3.11047 1.78946 3.62595C1.27397 4.14144 0.984375 4.84058 0.984375 5.56959V18.3969C0.984375 19.1259 1.27397 19.8251 1.78946 20.3406C2.30494 20.8561 3.00409 21.1457 3.73309 21.1457H16.5604C17.2894 21.1457 17.9886 20.8561 18.5041 20.3406C19.0196 19.8251 19.3092 19.1259 19.3092 18.3969V11.9833C19.3092 11.4772 18.8989 11.067 18.3929 11.067C17.8869 11.067 17.4767 11.4772 17.4767 11.9833V18.3969C17.4767 18.6399 17.3801 18.873 17.2083 19.0448C17.0365 19.2166 16.8034 19.3132 16.5604 19.3132H3.73309C3.49009 19.3132 3.25704 19.2166 3.08521 19.0448C2.91339 18.873 2.81685 18.6399 2.81685 18.3969V5.56959C2.81685 5.32659 2.91339 5.09354 3.08521 4.92171C3.25704 4.74988 3.49009 4.65335 3.73309 4.65335H10.1468C10.6528 4.65335 11.063 4.24314 11.063 3.73711C11.063 3.23109 10.6528 2.82087 10.1468 2.82087H3.73309Z" fill="#F5953A"/>
</g>
<defs>
<clipPath id="clip0_2219_723">
<rect width="21.9897" height="21.9897" fill="white" transform="translate(0.0683594 0.0722656)"/>
</clipPath>
</defs>
</svg>
