<svg width="19" height="20" viewBox="0 0 19 20" fill="none" xmlns="http://www.w3.org/2000/svg">
<g id="Group">
<path id="Vector" d="M18.3196 10.221C18.3196 9.60211 18.2585 8.96322 18.1567 8.36426H9.33789V11.8981H14.3888C14.1852 13.0361 13.5131 14.0344 12.5151 14.6733L15.5294 16.9693C17.3013 15.3521 18.3196 12.9962 18.3196 10.221Z" fill="#4280EF"/>
<path id="Vector_2" d="M9.33865 19.1655C11.8641 19.1655 13.9823 18.3469 15.5301 16.9493L12.5159 14.6733C11.6808 15.2323 10.6014 15.5518 9.33865 15.5518C6.89464 15.5518 4.83759 13.9346 4.08403 11.7783L0.988281 14.1143C2.57689 17.2089 5.79483 19.1655 9.33865 19.1655Z" fill="#34A353"/>
<path id="Vector_3" d="M4.08374 11.7585C3.69677 10.6205 3.69677 9.38261 4.08374 8.24458L0.987996 5.88867C-0.335842 8.48417 -0.335842 11.5389 0.987996 14.1144L4.08374 11.7585Z" fill="#F6B704"/>
<path id="Vector_4" d="M9.33865 4.47095C10.6625 4.45099 11.966 4.95012 12.9232 5.84856L15.5912 3.21314C13.9008 1.65584 11.6605 0.817297 9.33865 0.837263C5.79483 0.837263 2.57689 2.79387 0.988281 5.88849L4.08403 8.2444C4.8376 6.06818 6.89464 4.47095 9.33865 4.47095Z" fill="#E54335"/>
</g>
</svg>
