<svg width="23" height="23" viewBox="0 0 23 23" fill="none" xmlns="http://www.w3.org/2000/svg">
<path d="M17.3845 3.6665C17.2897 3.62983 16.814 3.46382 16.3524 3.6472C14.5543 4.40581 12.8006 5.25322 11.0207 6.0485C10.3495 6.3477 9.69232 6.67778 9.01099 6.95382C8.25105 7.26266 7.43869 7.38234 6.61425 7.392C6.01556 7.39779 5.4189 7.40165 4.82223 7.392C3.70348 7.37076 2.85686 7.84176 2.21383 8.68723C1.98 8.99608 1.80866 9.33002 1.6857 9.68327C1.48816 10.2778 1.3148 11.297 1.76029 12.5556C2.00218 13.154 2.38316 13.6694 2.92943 14.0805C2.98184 14.1191 3.03022 14.1558 3.03627 14.2291C3.08666 14.8681 3.25397 15.4896 3.37088 16.1189C3.56238 17.1632 3.77605 18.2036 3.97763 19.246C4.05624 19.6591 4.30015 19.9197 4.72749 20.0239C4.74362 20.0278 4.75974 20.0432 4.77385 20.0548H5.05001C5.43906 19.9428 5.84422 19.9023 6.24133 19.8251C6.61425 19.7537 6.98918 19.6977 7.36209 19.6263C7.93256 19.5182 8.24097 19.0568 8.13413 18.5048C7.99908 17.7963 7.71687 17.1458 7.28348 16.559C6.9025 16.0417 6.66061 15.4723 6.52152 14.8565C6.48725 14.7059 6.5195 14.6557 6.68681 14.6615C7.70881 14.704 8.67234 14.926 9.59959 15.3584C11.8089 16.3872 14.0363 17.3833 16.2556 18.3909C16.9833 18.721 17.7594 18.4025 18.0114 17.667C18.6806 15.7174 19.0898 13.7215 19.1624 11.6676C19.2511 9.13892 18.8136 6.69129 17.9751 4.30157C17.8683 3.99659 17.6606 3.7939 17.3845 3.6665ZM8.6421 13.3856C8.36998 13.3238 8.09583 13.2756 7.81766 13.2389C8.37602 11.5422 8.06156 9.73925 7.82572 8.81849C8.10188 8.77796 8.37804 8.72584 8.65218 8.66021C9.3194 11.1812 8.94245 12.6888 8.6421 13.3856ZM17.5719 11.8105C17.4913 13.4686 17.1708 15.0862 16.679 16.6748C16.6245 16.8486 16.5701 16.8544 16.4129 16.7829C14.2096 15.7753 12.0064 14.7696 9.79714 13.7736C10.6135 11.6618 10.0955 9.33388 9.78303 8.29924C10.2628 8.10235 10.7224 7.86299 11.1941 7.65066C12.9377 6.86502 14.6753 6.06974 16.4129 5.27638C16.5217 5.22812 16.6104 5.16442 16.6669 5.3478C17.322 7.45763 17.6788 9.60606 17.5719 11.8105ZM21.5934 10.523C21.4362 9.71029 20.9987 9.07136 20.2872 8.60616C20.1824 8.5386 20.0795 8.45559 19.9223 8.4305C20.1582 10.1697 20.1622 11.8954 19.9223 13.6134C19.9888 13.6365 20.0191 13.6057 20.0513 13.5883C20.6984 13.2408 21.162 12.7389 21.4402 12.0788C21.5309 11.8626 21.5571 11.6309 21.6377 11.4128V10.6214C21.5934 10.5982 21.6014 10.5577 21.5934 10.523Z" fill="#414357"/>
</svg>
