<svg width="23" height="22" viewBox="0 0 23 22" fill="none" xmlns="http://www.w3.org/2000/svg">
<path d="M16.9821 2.85791C16.8874 2.82123 16.4117 2.65523 15.9501 2.83861C14.152 3.59722 12.3983 4.44462 10.6184 5.23991C9.94711 5.53911 9.28997 5.86919 8.60865 6.14522C7.8487 6.45407 7.03635 6.57375 6.2119 6.5834C5.61322 6.58919 5.01655 6.59305 4.41989 6.5834C3.30114 6.56217 2.45452 7.03316 1.81149 7.87864C1.57766 8.18749 1.40632 8.52143 1.28336 8.87468C1.08581 9.46921 0.912459 10.4884 1.35794 11.747C1.59983 12.3454 1.98081 12.8608 2.52709 13.2719C2.5795 13.3105 2.62787 13.3472 2.63392 13.4205C2.68432 14.0595 2.85162 14.681 2.96854 15.3103C3.16004 16.3546 3.37371 17.395 3.57528 18.4374C3.6539 18.8505 3.89781 19.1111 4.32515 19.2153C4.34127 19.2192 4.3574 19.2346 4.37151 19.2462H4.64767C5.03671 19.1343 5.44188 19.0937 5.83899 19.0165C6.2119 18.9451 6.58683 18.8891 6.95975 18.8177C7.53021 18.7096 7.83862 18.2482 7.73179 17.6962C7.59673 16.9878 7.31452 16.3372 6.88114 15.7504C6.50016 15.2331 6.25826 14.6637 6.11918 14.0479C6.08491 13.8973 6.11716 13.8471 6.28447 13.8529C7.30646 13.8954 8.27 14.1174 9.19725 14.5498C11.4065 15.5786 13.6339 16.5747 15.8533 17.5823C16.581 17.9124 17.3571 17.5939 17.609 16.8584C18.2783 14.9088 18.6875 12.9129 18.76 10.859C18.8487 8.33033 18.4113 5.8827 17.5727 3.49298C17.4659 3.18799 17.2583 2.98531 16.9821 2.85791ZM8.23976 12.577C7.96763 12.5152 7.69349 12.467 7.41531 12.4303C7.97368 10.7336 7.65922 8.93065 7.42338 8.0099C7.69954 7.96936 7.9757 7.91724 8.24984 7.85161C8.91706 10.3726 8.54011 11.8802 8.23976 12.577ZM17.1696 11.0019C17.089 12.66 16.7685 14.2776 16.2766 15.8662C16.2222 16.04 16.1678 16.0458 16.0105 15.9743C13.8073 14.9667 11.6041 13.961 9.39479 12.965C10.2112 10.8532 9.69313 8.52529 9.38068 7.49065C9.86043 7.29375 10.32 7.0544 10.7917 6.84206C12.5354 6.05643 14.2729 5.26114 16.0105 4.46779C16.1194 4.41953 16.2081 4.35583 16.2645 4.53921C16.9196 6.64903 17.2764 8.79746 17.1696 11.0019ZM21.191 9.71436C21.0338 8.9017 20.5964 8.26277 19.8848 7.79756C19.78 7.73 19.6772 7.647 19.52 7.62191C19.7558 9.36111 19.7599 11.0868 19.52 12.8048C19.5865 12.8279 19.6167 12.7971 19.649 12.7797C20.296 12.4322 20.7597 11.9304 21.0378 11.2702C21.1286 11.054 21.1548 10.8224 21.2354 10.6042V9.8128C21.191 9.78964 21.1991 9.7491 21.191 9.71436Z" fill="#FF7999"/>
</svg>
