<svg width="23" height="22" viewBox="0 0 23 22" fill="none" xmlns="http://www.w3.org/2000/svg">
<g clip-path="url(#clip0_137_4647)">
<path d="M13.4467 1.83789H5.65865C5.17265 1.83789 4.70655 2.03095 4.36289 2.37461C4.01924 2.71827 3.82617 3.18437 3.82617 3.67037V18.3302C3.82617 18.8162 4.01924 19.2823 4.36289 19.626C4.70655 19.9696 5.17265 20.1627 5.65865 20.1627H16.6535C17.1395 20.1627 17.6056 19.9696 17.9493 19.626C18.2929 19.2823 18.486 18.8162 18.486 18.3302V6.87721L13.4467 1.83789Z" stroke="#3DB0E5" stroke-width="1.83248" stroke-linecap="round" stroke-linejoin="round"/>
<path d="M12.9902 1.83789V7.33533H18.4877" stroke="#3DB0E5" stroke-width="1.83248" stroke-linecap="round" stroke-linejoin="round"/>
<path d="M14.8221 11.9165H7.49219" stroke="#3DB0E5" stroke-width="1.83248" stroke-linecap="round" stroke-linejoin="round"/>
<path d="M14.8221 15.5815H7.49219" stroke="#3DB0E5" stroke-width="1.83248" stroke-linecap="round" stroke-linejoin="round"/>
<path d="M9.32467 8.25146H7.49219" stroke="#3DB0E5" stroke-width="1.83248" stroke-linecap="round" stroke-linejoin="round"/>
</g>
<defs>
<clipPath id="clip0_137_4647">
<rect width="21.9897" height="21.9897" fill="white" transform="translate(0.162109 0.00537109)"/>
</clipPath>
</defs>
</svg>
