<svg width="23" height="23" viewBox="0 0 23 23" fill="none" xmlns="http://www.w3.org/2000/svg">
<path d="M18.5525 7.5989C18.5644 7.75924 18.5644 7.91867 18.5644 8.0781C18.5644 12.9571 14.8509 18.5791 8.06434 18.5791C5.97348 18.5791 4.03106 17.9735 2.39648 16.9216C2.69335 16.9555 2.97921 16.9674 3.28799 16.9674C5.01326 16.9674 6.60111 16.3847 7.8701 15.3906C6.24744 15.3567 4.88774 14.2939 4.41862 12.8315C4.64677 12.8654 4.87583 12.8884 5.11588 12.8884C5.44665 12.8884 5.77924 12.8425 6.08801 12.7628C4.39572 12.4202 3.12856 10.9349 3.12856 9.14093V9.09512C3.62058 9.36908 4.1914 9.54041 4.79612 9.56332C3.802 8.90179 3.15055 7.77024 3.15055 6.49025C3.15055 5.80491 3.33288 5.17636 3.65265 4.62845C5.46955 6.86683 8.20086 8.33006 11.2629 8.4904C11.2061 8.21553 11.1713 7.93058 11.1713 7.64471C11.1713 5.61066 12.8169 3.9541 14.8619 3.9541C15.9248 3.9541 16.8841 4.39939 17.5584 5.11956C18.3922 4.95922 19.1912 4.65044 19.9003 4.22806C19.6264 5.08474 19.0427 5.80491 18.2777 6.26211C19.0207 6.18148 19.7409 5.97624 20.4024 5.69038C19.9003 6.42153 19.2727 7.07298 18.5525 7.5989Z" fill="#1DA1F2"/>
</svg>
