<svg width="23" height="22" viewBox="0 0 23 22" fill="none" xmlns="http://www.w3.org/2000/svg">
<g id="Icon/Website" clip-path="url(#clip0_137_4667)">
<path id="Vector" d="M11.1565 20.1627C16.2168 20.1627 20.3189 16.0605 20.3189 11.0003C20.3189 5.94003 16.2168 1.83789 11.1565 1.83789C6.09628 1.83789 1.99414 5.94003 1.99414 11.0003C1.99414 16.0605 6.09628 20.1627 11.1565 20.1627Z" stroke="#C29E23" stroke-width="1.83248" stroke-linecap="round" stroke-linejoin="round"/>
<path id="Vector_2" d="M1.99414 11H20.3189" stroke="#C29E23" stroke-width="1.83248" stroke-linecap="round" stroke-linejoin="round"/>
<path id="Vector_3" d="M11.1571 1.83789C13.4489 4.34688 14.7513 7.6029 14.8221 11.0003C14.7513 14.3977 13.4489 17.6537 11.1571 20.1627C8.86537 17.6537 7.56296 14.3977 7.49219 11.0003C7.56296 7.6029 8.86537 4.34688 11.1571 1.83789V1.83789Z" stroke="#C29E23" stroke-width="1.83248" stroke-linecap="round" stroke-linejoin="round"/>
</g>
<defs>
<clipPath id="clip0_137_4667">
<rect width="21.9897" height="21.9897" fill="white" transform="translate(0.162109 0.00537109)"/>
</clipPath>
</defs>
</svg>
