<svg width="134" height="122" viewBox="0 0 134 122" fill="none" xmlns="http://www.w3.org/2000/svg">
<path fill-rule="evenodd" clip-rule="evenodd" d="M2.65306 32.8056C7.23944 29.3501 11.9938 26.131 16.6001 22.7081C17.5478 22.0049 20.0024 19.0636 20.9891 19.0333C22.3724 18.9917 23.5625 22.9951 23.8652 23.9183C25.4161 28.6536 26.5113 33.4695 27.6218 38.321C27.751 38.8846 28.868 42.2235 28.495 42.5888C27.0777 43.9774 23.4341 42.144 22.0525 41.7357C16.0219 39.9528 7.70685 37.6766 2.27147 34.3815" fill="#1F2326"/>
<path d="M2.65306 32.8056C7.23944 29.3501 11.9938 26.131 16.6001 22.7081C17.5478 22.0049 20.0024 19.0636 20.9891 19.0333C22.3724 18.9917 23.5625 22.9951 23.8652 23.9183C25.4161 28.6536 26.5113 33.4695 27.6218 38.321C27.751 38.8846 28.868 42.2235 28.495 42.5888C27.0777 43.9774 23.4341 42.144 22.0525 41.7357C16.0219 39.9528 7.70685 37.6766 2.27147 34.3815" stroke="#1F2326" stroke-width="2.48826" stroke-miterlimit="1.5" stroke-linecap="round" stroke-linejoin="round"/>
<path d="M23.0758 30.2014C39.6869 23.1638 65.6981 19.9335 82.5113 28.4994C90.1392 32.3854 104.633 48.9597 94.1466 57.2716C82.6567 66.3784 74.5518 44.2405 86.792 38.7791C97.615 33.9502 108.845 40.2166 115.948 48.4944C128.5 63.1239 132.303 80.6561 128.084 99.3191" stroke="#1F2326" stroke-width="2.48826" stroke-miterlimit="1.5" stroke-linecap="round" stroke-linejoin="round"/>
</svg>
