<svg width="202" height="88" viewBox="0 0 202 88" fill="none" xmlns="http://www.w3.org/2000/svg">
<g id="Company logo">
<g id="Vector">
<path fill-rule="evenodd" clip-rule="evenodd" d="M124.547 69.3125C112.88 77.9116 95.9702 82.4996 81.4111 82.4996C60.9968 82.4996 42.6188 74.9491 28.715 62.3912C27.6227 61.4037 28.6014 60.0579 29.9123 60.8269C44.9171 69.5572 63.47 74.8093 82.6346 74.8093C95.5595 74.8093 109.778 72.1352 122.851 66.5859C124.826 65.747 126.478 67.8793 124.547 69.3125Z" fill="#FF9900"/>
<path fill-rule="evenodd" clip-rule="evenodd" d="M129.397 63.7633C127.911 61.8582 119.539 62.8632 115.782 63.3089C114.637 63.4487 114.462 62.4525 115.493 61.7359C122.161 57.043 133.102 58.3976 134.378 59.9706C135.654 61.5523 134.046 72.5198 127.78 77.7544C126.819 78.5584 125.901 78.1302 126.33 77.064C127.737 73.551 130.891 65.6771 129.397 63.7633Z" fill="#FF9900"/>
</g>
<g id="Vector_2">
<path fill-rule="evenodd" clip-rule="evenodd" d="M116.045 28.6067V24.0449C116.045 23.3545 116.569 22.8914 117.199 22.8914H137.622C138.277 22.8914 138.801 23.3633 138.801 24.0449V27.9512C138.793 28.6067 138.242 29.4631 137.263 30.8176L126.68 45.9273C130.613 45.8312 134.764 46.4167 138.329 48.4267C139.133 48.8811 139.352 49.5453 139.413 50.2007V55.0683C139.413 55.7325 138.679 56.5102 137.91 56.1082C131.627 52.8136 123.281 52.4553 116.333 56.1432C115.626 56.5277 114.883 55.7587 114.883 55.0945V50.4716C114.883 49.7288 114.892 48.4616 115.634 47.3343L127.895 29.7515H117.225C116.569 29.7515 116.045 29.2883 116.045 28.6067Z" fill="white"/>
<path fill-rule="evenodd" clip-rule="evenodd" d="M41.5452 57.0696H35.3318C34.7375 57.0259 34.2656 56.5802 34.2219 56.0122V24.1236C34.2219 23.4857 34.755 22.9788 35.4192 22.9788H41.2131C41.8161 23.005 42.2967 23.4682 42.3404 24.045V28.2135H42.4541C43.9659 24.1848 46.8061 22.3059 50.6337 22.3059C54.5226 22.3059 56.952 24.1848 58.6998 28.2135C60.2029 24.1848 63.6199 22.3059 67.2815 22.3059C69.8857 22.3059 72.7346 23.3808 74.4737 25.7928C76.4399 28.4756 76.0379 32.3732 76.0379 35.7902L76.0292 55.916C76.0292 56.554 75.4961 57.0696 74.832 57.0696H68.6273C68.0068 57.0259 67.5087 56.5278 67.5087 55.916V39.0149C67.5087 37.6691 67.6311 34.3133 67.3339 33.0374C66.8708 30.8963 65.4813 30.2934 63.681 30.2934C62.1779 30.2934 60.6049 31.2983 59.967 32.9063C59.329 34.5143 59.3902 37.2059 59.3902 39.0149V55.916C59.3902 56.554 58.8571 57.0696 58.193 57.0696H51.9883C51.3591 57.0259 50.8697 56.5278 50.8697 55.916L50.861 39.0149C50.861 35.4581 51.4465 30.2234 47.0333 30.2234C42.5677 30.2234 42.7424 35.327 42.7424 39.0149V55.916C42.7424 56.554 42.2094 57.0696 41.5452 57.0696Z" fill="white"/>
<path fill-rule="evenodd" clip-rule="evenodd" d="M156.384 22.3059C165.604 22.3059 170.594 30.2234 170.594 40.2907C170.594 50.0172 165.079 57.7337 156.384 57.7337C147.33 57.7337 142.402 49.8162 142.402 39.9499C142.402 30.0224 147.392 22.3059 156.384 22.3059ZM156.436 28.8165C151.857 28.8165 151.569 35.0561 151.569 38.9449C151.569 42.8425 151.508 51.162 156.384 51.162C161.199 51.162 161.426 44.4505 161.426 40.3606C161.426 37.6691 161.313 34.4531 160.5 31.9013C159.801 29.6816 158.411 28.8165 156.436 28.8165Z" fill="white"/>
<path fill-rule="evenodd" clip-rule="evenodd" d="M182.549 57.0696H176.361C175.741 57.0259 175.243 56.5278 175.243 55.916L175.234 24.0188C175.287 23.4333 175.802 22.9788 176.431 22.9788H182.19C182.732 23.005 183.178 23.3721 183.3 23.8702V28.7466H183.414C185.153 24.3858 187.591 22.3059 191.882 22.3059C194.67 22.3059 197.387 23.3109 199.135 26.0637C200.761 28.6155 200.761 32.9063 200.761 35.9912V56.0646C200.691 56.6239 200.175 57.0696 199.563 57.0696H193.333C192.765 57.0259 192.293 56.6064 192.231 56.0646V38.7439C192.231 35.2571 192.633 30.1535 188.343 30.1535C186.831 30.1535 185.441 31.1673 184.751 32.7053C183.877 34.6541 183.763 36.5942 183.763 38.7439V55.916C183.755 56.554 183.213 57.0696 182.549 57.0696Z" fill="white"/>
<path fill-rule="evenodd" clip-rule="evenodd" d="M99.7644 41.8375C99.7644 44.2582 99.8256 46.2769 98.6021 48.4267C97.6146 50.1745 96.0416 51.2494 94.3025 51.2494C91.9168 51.2494 90.5185 49.4317 90.5185 46.7488C90.5185 41.453 95.2638 40.4917 99.7644 40.4917V41.8375ZM106.03 56.9821C105.62 57.3492 105.025 57.3754 104.562 57.1307C102.5 55.4179 102.124 54.6226 100.997 52.9884C97.5884 56.4665 95.1677 57.5065 90.7545 57.5065C85.5198 57.5065 81.4562 54.2818 81.4562 47.8237C81.4562 42.7813 84.1828 39.3469 88.0804 37.669C91.4536 36.1834 96.1639 35.9212 99.7644 35.5105V34.7065C99.7644 33.2296 99.878 31.4818 99.0041 30.2059C98.2525 29.0611 96.8019 28.5892 95.5172 28.5892C93.149 28.5892 91.0429 29.8039 90.5273 32.3207C90.4224 32.88 90.0117 33.4306 89.4436 33.4568L83.4225 32.8101C82.9156 32.6965 82.3476 32.2858 82.4962 31.508C83.8769 24.2022 90.4836 22 96.3911 22C99.4148 22 103.365 22.804 105.751 25.0936C108.774 27.9163 108.486 31.6828 108.486 35.7814V45.4642C108.486 48.3743 109.692 49.6501 110.828 51.2232C111.221 51.7824 111.309 52.4553 110.802 52.8748C109.535 53.9322 107.28 55.8985 106.039 56.9996L106.03 56.9821Z" fill="white"/>
<path fill-rule="evenodd" clip-rule="evenodd" d="M18.3082 41.8375C18.3082 44.2582 18.3693 46.2769 17.1459 48.4267C16.1584 50.1745 14.5941 51.2494 12.8463 51.2494C10.4606 51.2494 9.07106 49.4316 9.07106 46.7488C9.07106 41.453 13.8163 40.4917 18.3082 40.4917V41.8375ZM24.574 56.9821C24.1633 57.3492 23.569 57.3754 23.1058 57.1307C21.0435 55.4178 20.6764 54.6226 19.5403 52.9884C16.1321 56.4665 13.7202 57.5065 9.29827 57.5065C4.07236 57.5065 0 54.2818 0 47.8237C0 42.7813 2.7353 39.3469 6.62414 37.669C9.99739 36.1834 14.7077 35.9212 18.3082 35.5105V34.7065C18.3082 33.2296 18.4218 31.4818 17.5566 30.2059C16.7963 29.0611 15.3456 28.5892 14.0697 28.5892C11.7015 28.5892 9.58666 29.8039 9.07106 32.3207C8.96619 32.88 8.55546 33.4306 7.99616 33.4568L1.96627 32.8101C1.45941 32.6965 0.900113 32.2858 1.03994 31.508C2.42943 24.2022 9.02736 22 14.9349 22C17.9586 22 21.9086 22.804 24.2943 25.0936C27.318 27.9163 27.0296 31.6828 27.0296 35.7814V45.4641C27.0296 48.3742 28.2356 49.6501 29.3717 51.2231C29.7737 51.7824 29.8611 52.4553 29.3542 52.8748C28.0871 53.9322 25.8324 55.8985 24.5915 56.9996L24.574 56.9821Z" fill="white"/>
</g>
</g>
</svg>
