<svg width="50" height="50" viewBox="0 0 50 50" fill="none" xmlns="http://www.w3.org/2000/svg">
<g clip-path="url(#clip0_121_2369)">
<path d="M41.0005 20.5579V10.6641H28.6809V20.5579C23.3785 22.9188 19.6816 28.2338 19.6816 34.4125C19.6816 42.7846 26.4684 49.5713 34.8405 49.5713C43.2126 49.5713 49.9997 42.7846 49.9997 34.4125C49.9997 28.2338 46.3025 22.9188 41.0005 20.5579Z" fill="#C9FFF7"/>
<path d="M46.9325 34.4127C46.9325 41.08 41.5088 46.5033 34.8407 46.5033C32.6472 46.5033 30.5888 45.9166 28.8138 44.8909C25.1918 42.8008 22.75 38.8865 22.75 34.4127C22.75 31.0679 24.1355 27.938 26.4648 25.6953H43.2174C45.547 27.938 46.9325 31.0679 46.9325 34.4127Z" fill="#F7D360"/>
<path d="M31.4504 20.5582V17.82C31.4504 16.3365 32.6528 15.1341 34.1359 15.1341H41.0005V12.1979L38.5575 9.97473L36.2569 9.36133L28.6813 12.1976V20.5582C23.3781 22.9191 19.6816 28.2334 19.6816 34.4128C19.6816 42.7487 26.41 49.5129 34.7337 49.5701C30.1751 49.4649 26.4981 42.7189 26.4981 34.4128C26.4981 28.2334 28.5329 22.9191 31.4504 20.5582Z" fill="#72CEC0"/>
<path d="M28.8138 44.8909C25.1918 42.8008 22.75 38.8865 22.75 34.4127C22.75 31.0679 24.1355 27.938 26.4648 25.6953H28.0162C27.0598 28.1608 26.4987 31.1671 26.4987 34.4127C26.4987 38.4772 27.3791 42.1679 28.8138 44.8909Z" fill="#E58E13"/>
<path d="M29.6404 42.9795L19.7958 25.9282V17.106H10.4399V25.9282L0.595328 42.9795C-1.09611 45.9092 1.018 49.5713 4.40125 49.5713H25.8349C29.2178 49.5713 31.3323 45.9092 29.6404 42.9795Z" fill="#E6E6E6"/>
<path d="M19.7964 17.106L16.9319 15.4966L11.4422 15.5538L10.4401 17.106V25.9279L0.595872 42.9799C-1.09671 45.9096 1.01816 49.5714 4.40065 49.5714H10.252C8.71584 49.5714 7.75568 45.9096 8.52358 42.9799L12.9944 25.9279V21.3987C12.9944 20.4679 13.7489 19.7137 14.6797 19.7137H19.7964V17.106Z" fill="#CCCCCC"/>
<path d="M23.1892 15.1121C23.1892 16.2134 22.2966 17.106 21.1953 17.106H9.04277C8.49269 17.106 7.99373 16.8833 7.63286 16.522C7.27199 16.1611 7.04883 15.6622 7.04883 15.1121C7.04883 14.0108 7.94147 13.1182 9.04277 13.1182H21.1953C21.7453 13.1182 22.2443 13.3409 22.6052 13.7018C22.966 14.0631 23.1892 14.562 23.1892 15.1121Z" fill="#CCCCCC"/>
<path d="M23.1892 15.1121C23.1892 16.2134 22.2966 17.106 21.1953 17.106H13.8787C13.3275 17.106 12.8297 16.8833 12.4684 16.522C12.1075 16.1611 11.8848 15.6622 11.8848 15.1121C11.8848 14.0108 12.7774 13.1182 13.8787 13.1182H21.1953C21.7454 13.1182 22.2443 13.3409 22.6052 13.7018C22.9661 14.0631 23.1892 14.562 23.1892 15.1121Z" fill="#E6E6E6"/>
<path d="M44.4349 10.2037C44.4349 11.305 43.5423 12.1976 42.441 12.1976H27.4084C26.8572 12.1976 26.359 11.9748 25.9981 11.614C25.6372 11.2527 25.4141 10.7537 25.4141 10.2037C25.4141 9.10236 26.3071 8.20972 27.4084 8.20972H42.441C42.991 8.20972 43.49 8.4325 43.8509 8.79375C44.2121 9.15462 44.4349 9.65358 44.4349 10.2037Z" fill="#72CEC0"/>
<path d="M44.435 10.2037C44.435 11.305 43.5424 12.1976 42.4411 12.1976H32.0682C31.5181 12.1976 31.0191 11.9748 30.6579 11.614C30.297 11.2527 30.0742 10.7537 30.0742 10.2037C30.0742 9.10236 30.9669 8.20972 32.0682 8.20972H42.4411C42.9912 8.20972 43.4901 8.4325 43.851 8.79375C44.2122 9.15462 44.435 9.65358 44.435 10.2037Z" fill="#C9FFF7"/>
<path d="M26.9833 45.8403C26.8403 46.0886 26.5008 46.5037 25.8351 46.5037H4.40109C3.73428 46.5037 3.39477 46.0886 3.25172 45.8403C3.10867 45.5927 2.91832 45.0907 3.25172 44.5139L10.4863 31.9834H19.7499L26.9833 44.5139C27.3168 45.0907 27.1264 45.5927 26.9833 45.8403Z" fill="#FC5F61"/>
<path d="M8.52287 42.9798C8.22151 44.1303 8.18641 45.393 8.34816 46.5034H4.40109C3.73428 46.5034 3.39477 46.0884 3.25172 45.84C3.10867 45.5925 2.91832 45.0905 3.25172 44.5137L10.4863 31.9832H11.4056L8.52287 42.9798Z" fill="#E83842"/>
<path d="M16.767 40.7258C16.0705 40.7258 15.739 39.8305 16.2696 39.3762C16.7972 38.9245 17.6253 39.3853 17.5258 40.072C17.472 40.4435 17.1416 40.7258 16.767 40.7258Z" fill="#E83842"/>
<path d="M13.3852 9.28429C12.7157 9.28429 12.3717 8.44734 12.8432 7.97432C13.098 7.71912 13.5111 7.67944 13.8106 7.87933C14.073 8.05405 14.2039 8.38287 14.1318 8.68996C14.0517 9.0329 13.7381 9.28429 13.3852 9.28429Z" fill="#E83842"/>
<path d="M16.4368 6.36954C15.7429 6.36954 15.4038 5.47079 15.9386 5.01913C16.1931 4.80398 16.5642 4.77652 16.8469 4.95467C17.1185 5.12595 17.257 5.4624 17.1837 5.77559C17.1036 6.11777 16.7901 6.36954 16.4368 6.36954Z" fill="#E83842"/>
<path d="M14.7744 1.92178C14.4395 1.92178 14.1381 1.69671 14.0401 1.37742C13.9428 1.05889 14.071 0.701456 14.348 0.516825C14.9171 0.136881 15.6873 0.673991 15.5175 1.34118C15.4317 1.67764 15.1223 1.92178 14.7744 1.92178Z" fill="#E83842"/>
<path d="M41.5757 30.4502C40.894 30.4502 40.5541 29.5797 41.0569 29.1181C41.5387 28.676 42.3428 29.0288 42.3428 29.683C42.3428 30.1 41.9934 30.4502 41.5757 30.4502Z" fill="white"/>
<path d="M42.1096 35.5654C41.4416 35.5654 41.0914 34.728 41.5675 34.2565C41.8056 34.0208 42.1756 33.9662 42.4712 34.123C42.7547 34.2737 42.9141 34.5945 42.8684 34.9115C42.8142 35.2835 42.4838 35.5654 42.1096 35.5654Z" fill="white"/>
<path d="M32.1057 41.3394C31.7776 41.3394 31.4808 41.1238 31.3778 40.8129C31.2687 40.4849 31.4011 40.1126 31.6922 39.9264C32.2697 39.5568 33.0281 40.1126 32.8446 40.7759C32.7542 41.104 32.4467 41.3394 32.1057 41.3394Z" fill="white"/>
<path d="M28.5786 34.8971C27.8854 34.8971 27.549 34.0034 28.0773 33.5506C28.331 33.3327 28.7026 33.3057 28.986 33.4815C29.2549 33.649 29.3945 33.9782 29.3289 34.2883C29.2549 34.6385 28.9372 34.8971 28.5786 34.8971Z" fill="white"/>
<path d="M37.9342 33.0567C37.2487 33.0567 36.9092 32.1813 37.4196 31.7224C37.674 31.4935 38.0547 31.4614 38.3447 31.6426C38.6098 31.809 38.7475 32.1332 38.6868 32.4403C38.6167 32.7943 38.2947 33.0567 37.9342 33.0567Z" fill="white"/>
<path d="M11.4006 42.3139C11.0928 42.3139 10.8101 42.1239 10.6919 41.8405C10.5622 41.5284 10.6591 41.1535 10.9253 40.9448C11.472 40.5172 12.2929 41.01 12.1521 41.6971C12.0797 42.0511 11.763 42.3139 11.4006 42.3139Z" fill="#E83842"/>
<path d="M13.3949 37.3515C13.074 37.3515 12.7811 37.1451 12.6727 36.843C12.5575 36.5218 12.6754 36.1502 12.9562 35.9557C13.5021 35.5776 14.2677 36.0572 14.1498 36.716C14.0849 37.0784 13.7641 37.3515 13.3949 37.3515Z" fill="#E83842"/>
</g>
<defs>
<clipPath id="clip0_121_2369">
<rect width="50" height="50" fill="white"/>
</clipPath>
</defs>
</svg>
