<svg width="50" height="50" viewBox="0 0 50 50" fill="none" xmlns="http://www.w3.org/2000/svg">
<g clip-path="url(#clip0_121_2343)">
<path d="M3.96484 16.8245H46.0358V45.9186H3.96484V16.8245Z" fill="#D48880"/>
<path d="M11.9479 26.7961C11.9479 23.3034 12.5379 19.9488 13.6209 16.8245H3.96484V45.9185H17.1081C13.7329 40.6923 11.9479 34.0405 11.9479 26.7961Z" fill="#CC7C74"/>
<path d="M49.7569 15.9887L45.4473 8.17559C44.5073 6.47139 42.715 5.41309 40.7687 5.41309H9.23123C7.28494 5.41309 5.49266 6.47139 4.55262 8.17559L0.243049 15.9887C-0.467205 17.2764 0.464241 18.854 1.93485 18.854H48.065C49.5357 18.854 50.4672 17.2764 49.7569 15.9887Z" fill="#F4D68D"/>
<path d="M29.9885 4.2647H27.2637V1.53999C27.2637 0.697705 26.5809 0.0148926 25.7386 0.0148926H24.2594C23.4171 0.0148926 22.7343 0.697705 22.7343 1.53999V4.26479H20.0095C19.1672 4.26479 18.4844 4.94761 18.4844 5.78989V7.26909C18.4844 8.11138 19.1672 8.79419 20.0095 8.79419H22.7343V11.519C22.7343 12.3613 23.4171 13.0441 24.2594 13.0441H25.7386C26.5809 13.0441 27.2637 12.3613 27.2637 11.519V8.79409H29.9885C30.8308 8.79409 31.5136 8.11128 31.5136 7.26899V5.78979C31.5136 4.94751 30.8308 4.2647 29.9885 4.2647Z" fill="#F77A8B"/>
<path d="M26.9986 32.5308H23.0019C21.6007 32.5308 20.4648 33.6666 20.4648 35.0678V45.9186H29.5358V35.0678C29.5357 33.6666 28.3998 32.5308 26.9986 32.5308Z" fill="#5F66AF"/>
<path d="M26.5311 22.675H23.4727C22.6507 22.675 21.9844 23.3414 21.9844 24.1633V27.2217C21.9844 28.0437 22.6507 28.71 23.4727 28.71H26.5311C27.353 28.71 28.0193 28.0437 28.0193 27.2217V24.1633C28.0193 23.3414 27.353 22.675 26.5311 22.675Z" fill="#F4D68D"/>
<path d="M14.6795 22.675H11.6211C10.7991 22.675 10.1328 23.3414 10.1328 24.1633V27.2217C10.1328 28.0437 10.7991 28.71 11.6211 28.71H14.6795C15.5015 28.71 16.1678 28.0437 16.1678 27.2217V24.1633C16.1679 23.3414 15.5015 22.675 14.6795 22.675Z" fill="#F4D68D"/>
<path d="M14.6795 32.7747H11.6211C10.7991 32.7747 10.1328 33.441 10.1328 34.2629V37.3213C10.1328 38.1433 10.7991 38.8096 11.6211 38.8096H14.6795C15.5015 38.8096 16.1678 38.1433 16.1678 37.3213V34.2629C16.1679 33.441 15.5015 32.7747 14.6795 32.7747Z" fill="#F4D68D"/>
<path d="M35.3223 22.675H38.3807C39.2026 22.675 39.8689 23.3414 39.8689 24.1633V27.2217C39.8689 28.0437 39.2026 28.71 38.3807 28.71H35.3223C34.5003 28.71 33.834 28.0437 33.834 27.2217V24.1633C33.8339 23.3414 34.5003 22.675 35.3223 22.675Z" fill="#F4D68D"/>
<path d="M35.3223 32.7747H38.3807C39.2026 32.7747 39.8689 33.441 39.8689 34.2629V37.3213C39.8689 38.1433 39.2026 38.8096 38.3807 38.8096H35.3223C34.5003 38.8096 33.834 38.1433 33.834 37.3213V34.2629C33.8339 33.441 34.5003 32.7747 35.3223 32.7747Z" fill="#F4D68D"/>
<path d="M23.4029 36.4C23.4029 35.0114 23.7254 33.6983 24.2988 32.5308H23.0019C21.6007 32.5308 20.4648 33.6666 20.4648 35.0678V45.9186H29.5358V44.7804C25.98 43.6542 23.4029 40.3282 23.4029 36.4Z" fill="#4C5696"/>
<path d="M47.9813 42.874H2.01875C0.903809 42.874 0 43.7778 0 44.8929V47.9659C0 49.0809 0.903809 49.9847 2.01875 49.9847H47.9812C49.0961 49.9847 49.9999 49.0809 49.9999 47.9659V44.8929C50 43.7778 49.0962 42.874 47.9813 42.874Z" fill="#E09B94"/>
<path d="M11.9483 26.7963C11.9483 25.3984 12.0446 24.023 12.2271 22.675H11.6211C10.7991 22.675 10.1328 23.3414 10.1328 24.1633V27.2217C10.1328 28.0437 10.7991 28.71 11.6211 28.71H11.9921C11.9642 28.077 11.9483 27.4393 11.9483 26.7963Z" fill="#F7C572"/>
<path d="M12.3721 32.7747H11.6211C10.7991 32.7747 10.1328 33.441 10.1328 34.2629V37.3213C10.1328 38.1433 10.7991 38.8096 11.6211 38.8096H13.7664C13.1429 36.8917 12.6762 34.8722 12.3721 32.7747Z" fill="#F7C572"/>
<path d="M10.8421 11.9418C10.8421 9.54746 11.5185 7.31133 12.6899 5.41309H9.23123C7.28494 5.41309 5.49266 6.47139 4.55262 8.17559L0.243049 15.9887C-0.467205 17.2764 0.464241 18.854 1.93485 18.854H12.936C11.6137 16.8765 10.8421 14.4993 10.8421 11.9418Z" fill="#F7C572"/>
<path d="M14.8453 46.1008C14.8453 44.975 15.0229 43.8909 15.3505 42.874H2.01875C0.903809 42.8741 0 43.778 0 44.893V47.966C0 49.081 0.903809 49.9848 2.01875 49.9848H15.5862C15.1083 48.7832 14.8453 47.4728 14.8453 46.1008Z" fill="#D48880"/>
</g>
<defs>
<clipPath id="clip0_121_2343">
<rect width="50" height="50" fill="white"/>
</clipPath>
</defs>
</svg>
