<svg width="50" height="50" viewBox="0 0 50 50" fill="none" xmlns="http://www.w3.org/2000/svg">
<g id="004-doctor" clip-path="url(#clip0_121_2156)">
<g id="Group">
<g id="Group_2">
<path id="Vector" d="M46.4844 10.9375H30.2285C30.999 11.7979 31.9053 12.5 32.8125 12.5H34.375C34.7894 12.5 35.1868 12.6646 35.4799 12.9576C35.7729 13.2507 35.9375 13.6481 35.9375 14.0625V17.1875C35.9375 17.6019 35.7729 17.9993 35.4799 18.2924C35.1868 18.5854 34.7894 18.75 34.375 18.75H32.8125V19.5312C32.8131 20.6287 32.5245 21.7068 31.9759 22.6573C31.4273 23.6077 30.638 24.3969 29.6875 24.9453V17.9688L25 17.1875L20.3125 17.9688V24.9453C19.362 24.3969 18.5727 23.6077 18.0241 22.6573C17.4755 21.7068 17.1869 20.6287 17.1875 19.5312V18.75H15.625C15.2106 18.75 14.8132 18.5854 14.5201 18.2924C14.2271 17.9993 14.0625 17.6019 14.0625 17.1875V14.0625C14.0625 13.6481 14.2271 13.2507 14.5201 12.9576C14.8132 12.6646 15.2106 12.5 15.625 12.5H17.1875C17.1875 12.5 19.915 11.8701 22.6523 10.9375H3.51562C3.25912 10.9374 3.0051 10.9879 2.76811 11.086C2.53111 11.1841 2.31577 11.328 2.13439 11.5094C1.95301 11.6908 1.80914 11.9061 1.71102 12.1431C1.61289 12.3801 1.56242 12.6341 1.5625 12.8906V38.2812H7.8125V37.4375C7.81259 35.6766 8.40756 33.9674 9.5009 32.5871C10.5942 31.2067 12.1218 30.2362 13.8359 29.833L21.0938 28.125V25.7812H28.9062V28.125L36.1641 29.833C37.8782 30.2362 39.4058 31.2067 40.4991 32.5871C41.5924 33.9674 42.1874 35.6766 42.1875 37.4375V38.2812H48.4375V12.8906C48.4376 12.6341 48.3871 12.3801 48.289 12.1431C48.1909 11.9061 48.047 11.6908 47.8656 11.5094C47.6842 11.328 47.4689 11.1841 47.2319 11.086C46.9949 10.9879 46.7409 10.9374 46.4844 10.9375ZM17.1875 32.8125C16.8785 32.8125 16.5764 32.9041 16.3194 33.0758C16.0625 33.2475 15.8622 33.4915 15.7439 33.7771C15.6257 34.0626 15.5947 34.3767 15.655 34.6798C15.7153 34.9829 15.8641 35.2613 16.0826 35.4799C16.3012 35.6984 16.5796 35.8472 16.8827 35.9075C17.1858 35.9678 17.4999 35.9368 17.7854 35.8186C18.071 35.7003 18.315 35.5 18.4867 35.2431C18.6584 34.9861 18.75 34.684 18.75 34.375C18.75 33.9606 18.5854 33.5632 18.2924 33.2701C17.9993 32.9771 17.6019 32.8125 17.1875 32.8125Z" fill="#B3CBFA"/>
<path id="Vector_2" d="M21.0938 25H28.9062V25.7812H21.0938V25Z" fill="#B3CBFA"/>
<path id="Vector_3" d="M17.1875 35.9375C18.0504 35.9375 18.75 35.2379 18.75 34.375C18.75 33.5121 18.0504 32.8125 17.1875 32.8125C16.3246 32.8125 15.625 33.5121 15.625 34.375C15.625 35.2379 16.3246 35.9375 17.1875 35.9375Z" fill="#B3CBFA"/>
<g id="Group_3">
<path id="Vector_4" d="M29.6875 17.9688V25.7812H20.3125V17.9688L25 17.1875L29.6875 17.9688Z" fill="#B3CBFA"/>
<path id="Vector_5" d="M17.1875 35.9375C18.0504 35.9375 18.75 35.2379 18.75 34.375C18.75 33.5121 18.0504 32.8125 17.1875 32.8125C16.3246 32.8125 15.625 33.5121 15.625 34.375C15.625 35.2379 16.3246 35.9375 17.1875 35.9375Z" fill="#B3CBFA"/>
</g>
<path id="Vector_6" d="M34.375 9.375V12.5H32.8125C31.9053 12.5 30.999 11.7979 30.2285 10.9375C29.0059 9.57422 28.125 7.8125 28.125 7.8125C27.749 8.94141 25.1963 10.0703 22.6523 10.9375C19.915 11.8701 17.1875 12.5 17.1875 12.5H15.625V9.375C15.625 7.303 16.4481 5.31586 17.9132 3.85073C19.3784 2.3856 21.3655 1.5625 23.4375 1.5625H26.5625C27.5885 1.5625 28.6044 1.76458 29.5522 2.15719C30.5001 2.54981 31.3613 3.12527 32.0868 3.85073C32.8122 4.57619 33.3877 5.43743 33.7803 6.38529C34.1729 7.33314 34.375 8.34905 34.375 9.375Z" fill="#B3CBFA"/>
<path id="Vector_7" d="M30.4688 46.0938H19.5312L20.3125 42.1875H29.5898L30.4688 46.0938Z" fill="#B3CBFA"/>
</g>
<g id="Group_4">
<path id="Vector_8" d="M21.0938 14.8438C21.5252 14.8438 21.875 14.494 21.875 14.0625C21.875 13.631 21.5252 13.2812 21.0938 13.2812C20.6623 13.2812 20.3125 13.631 20.3125 14.0625C20.3125 14.494 20.6623 14.8438 21.0938 14.8438Z" fill="#1663F9"/>
<path id="Vector_9" d="M28.9062 14.8438C29.3377 14.8438 29.6875 14.494 29.6875 14.0625C29.6875 13.631 29.3377 13.2812 28.9062 13.2812C28.4748 13.2812 28.125 13.631 28.125 14.0625C28.125 14.494 28.4748 14.8438 28.9062 14.8438Z" fill="#1663F9"/>
<path id="Vector_10" d="M46.4844 10.1562H35.1562V9.375C35.1537 7.09659 34.2474 4.91224 32.6363 3.30116C31.0253 1.69008 28.8409 0.783835 26.5625 0.78125H23.4375C21.1591 0.783835 18.9747 1.69008 17.3637 3.30116C15.7526 4.91224 14.8463 7.09659 14.8438 9.375V10.1562H3.51562C2.79067 10.1571 2.09564 10.4454 1.58301 10.958C1.07039 11.4706 0.782051 12.1657 0.78125 12.8906V40.2344C0.782051 40.9593 1.07039 41.6544 1.58301 42.167C2.09564 42.6796 2.79067 42.9679 3.51562 42.9688H19.3594L18.8906 45.3125H16.4062C16.199 45.3125 16.0003 45.3948 15.8538 45.5413C15.7073 45.6878 15.625 45.8866 15.625 46.0938V47.6562H11.7188C11.5115 47.6562 11.3128 47.7386 11.1663 47.8851C11.0198 48.0316 10.9375 48.2303 10.9375 48.4375C10.9375 48.6447 11.0198 48.8434 11.1663 48.9899C11.3128 49.1364 11.5115 49.2188 11.7188 49.2188H36.7188C36.9259 49.2188 37.1247 49.1364 37.2712 48.9899C37.4177 48.8434 37.5 48.6447 37.5 48.4375C37.5 48.2303 37.4177 48.0316 37.2712 47.8851C37.1247 47.7386 36.9259 47.6562 36.7188 47.6562H34.375V46.0938C34.375 45.8866 34.2927 45.6878 34.1462 45.5413C33.9997 45.3948 33.8009 45.3125 33.5938 45.3125H31.0938L30.5664 42.9688H46.4844C47.2093 42.9679 47.9044 42.6796 48.417 42.167C48.9296 41.6544 49.2179 40.9593 49.2188 40.2344V12.8906C49.2179 12.1657 48.9296 11.4706 48.417 10.958C47.9044 10.4454 47.2093 10.1571 46.4844 10.1562ZM35.1562 14.0625V17.1875C35.156 17.3946 35.0736 17.5932 34.9271 17.7396C34.7807 17.8861 34.5821 17.9685 34.375 17.9688H33.5938V13.2812H34.375C34.5821 13.2815 34.7807 13.3639 34.9271 13.5104C35.0736 13.6568 35.156 13.8554 35.1562 14.0625ZM16.4062 9.375C16.4084 7.51086 17.1499 5.72368 18.468 4.40552C19.7862 3.08737 21.5734 2.3459 23.4375 2.34375H26.5625C28.4266 2.3459 30.2138 3.08737 31.532 4.40552C32.8501 5.72368 33.5916 7.51086 33.5938 9.375V11.7188H32.8125C31.4102 11.7188 29.5195 8.85156 28.8242 7.46289C28.7552 7.32453 28.6466 7.20978 28.5123 7.13316C28.378 7.05654 28.224 7.0215 28.0697 7.03248C27.9155 7.04346 27.768 7.09996 27.6459 7.19484C27.5238 7.28971 27.4325 7.41869 27.3838 7.56543C27.3232 7.74805 26.7832 8.7373 22.126 10.291C19.8174 11.0605 17.5547 11.6104 17.0967 11.7188H16.4062V9.375ZM29.4189 17.1318L25.1289 16.417C25.0436 16.4023 24.9564 16.4023 24.8711 16.417L20.5811 17.1318L17.9688 14.5205V13.1152C18.8838 12.8877 20.7109 12.4092 22.6104 11.7764C25.6572 10.7607 27.208 9.90625 28.0166 9.21484C28.2686 9.62988 28.5908 10.126 28.9648 10.625C30.0098 12.0186 31.0381 12.8672 32.0312 13.1621V14.5205L29.4189 17.1318ZM32.0312 16.7295V19.5312C32.0286 20.9612 31.468 22.3336 30.4688 23.3564V18.292L32.0312 16.7295ZM29.6875 36.7188H31.25C31.4572 36.7188 31.6559 36.6364 31.8024 36.4899C31.9489 36.3434 32.0312 36.1447 32.0312 35.9375C32.0312 35.7303 31.9489 35.5316 31.8024 35.3851C31.6559 35.2386 31.4572 35.1562 31.25 35.1562H30.6025C30.764 34.6991 31.0632 34.3033 31.459 34.0233C31.8548 33.7434 32.3277 33.593 32.8125 33.593C33.2973 33.593 33.7702 33.7434 34.166 34.0233C34.5618 34.3033 34.861 34.6991 35.0225 35.1562H34.375C34.1678 35.1562 33.9691 35.2386 33.8226 35.3851C33.6761 35.5316 33.5938 35.7303 33.5938 35.9375C33.5938 36.1447 33.6761 36.3434 33.8226 36.4899C33.9691 36.6364 34.1678 36.7188 34.375 36.7188H35.9375C36.1447 36.7188 36.3434 36.6364 36.4899 36.4899C36.6364 36.3434 36.7188 36.1447 36.7188 35.9375C36.7177 35.0373 36.4063 34.1651 35.837 33.4677C35.2678 32.7704 34.4755 32.2906 33.5938 32.1094V30.0303L35.9854 30.5938C37.5304 30.952 38.908 31.8242 39.8928 33.0675C40.8776 34.3107 41.4112 35.8515 41.4062 37.4375V37.5H8.59375V37.4375C8.5888 35.8515 9.12239 34.3107 10.1072 33.0675C11.092 31.8242 12.4696 30.952 14.0146 30.5938L16.4062 30.0303V32.0312C16.4067 32.0751 16.4106 32.1189 16.418 32.1621C15.8947 32.344 15.4528 32.7053 15.1706 33.182C14.8885 33.6587 14.7842 34.2199 14.8765 34.7661C14.9687 35.3124 15.2514 35.8083 15.6745 36.1659C16.0975 36.5235 16.6336 36.7197 17.1875 36.7197C17.7414 36.7197 18.2775 36.5235 18.7005 36.1659C19.1236 35.8083 19.4063 35.3124 19.4985 34.7661C19.5908 34.2199 19.4865 33.6587 19.2044 33.182C18.9222 32.7053 18.4803 32.344 17.957 32.1621C17.9644 32.1189 17.9683 32.0751 17.9688 32.0312V29.6875C17.9688 29.6797 17.9678 29.6719 17.9678 29.6631L20.4541 29.0781C20.9658 30.7734 22.8096 32.0312 25 32.0312C27.1904 32.0312 29.0342 30.7734 29.5459 29.0781L32.0322 29.6631C32.0322 29.6719 32.0312 29.6797 32.0312 29.6875V32.1094C31.1495 32.2906 30.3572 32.7704 29.788 33.4677C29.2187 34.1651 28.9073 35.0373 28.9062 35.9375C28.9062 36.1447 28.9886 36.3434 29.1351 36.4899C29.2816 36.6364 29.4803 36.7188 29.6875 36.7188ZM17.1875 33.5938C17.342 33.5938 17.4931 33.6396 17.6215 33.7254C17.75 33.8113 17.8501 33.9333 17.9093 34.076C17.9684 34.2188 17.9839 34.3759 17.9537 34.5274C17.9236 34.679 17.8492 34.8182 17.7399 34.9274C17.6307 35.0367 17.4915 35.1111 17.3399 35.1412C17.1884 35.1714 17.0313 35.1559 16.8885 35.0968C16.7458 35.0376 16.6238 34.9375 16.5379 34.809C16.4521 34.6806 16.4062 34.5295 16.4062 34.375C16.4065 34.1679 16.4889 33.9693 16.6354 33.8229C16.7818 33.6764 16.9804 33.594 17.1875 33.5938ZM21.0938 25V18.6309L25 17.9795L28.9062 18.6309V25H21.0938ZM28.125 26.5625V28.125C28.125 29.417 26.7227 30.4688 25 30.4688C23.2773 30.4688 21.875 29.417 21.875 28.125V26.5625H28.125ZM19.5312 18.292V23.3564C18.532 22.3336 17.9714 20.9612 17.9688 19.5312V16.7295L19.5312 18.292ZM15.625 13.2812H16.4062V17.9688H15.625C15.4179 17.9685 15.2193 17.8861 15.0729 17.7396C14.9264 17.5932 14.844 17.3946 14.8438 17.1875V14.0625C14.844 13.8554 14.9264 13.6568 15.0729 13.5104C15.2193 13.3639 15.4179 13.2815 15.625 13.2812ZM2.34375 12.8906C2.34401 12.5799 2.46756 12.282 2.68727 12.0623C2.90698 11.8426 3.2049 11.719 3.51562 11.7188H14.8438V11.8535C14.3872 12.0154 13.9919 12.3146 13.7121 12.7102C13.4323 13.1057 13.2818 13.5781 13.2812 14.0625V17.1875C13.2821 17.8088 13.5293 18.4045 13.9686 18.8439C14.408 19.2832 15.0037 19.5304 15.625 19.5312H16.4062C16.4084 20.6872 16.6945 21.825 17.2394 22.8444C17.7843 23.8639 18.5713 24.7339 19.5312 25.3779V25.7812C19.5312 25.9885 19.6136 26.1872 19.7601 26.3337C19.9066 26.4802 20.1053 26.5625 20.3125 26.5625V27.5059L13.6572 29.0723C11.7688 29.5104 10.085 30.5765 8.88128 32.0961C7.6776 33.6157 7.02535 35.4989 7.03125 37.4375V37.5H2.34375V12.8906ZM32.8125 46.875V47.6562H17.1875V46.875H32.8125ZM20.4844 45.3125L20.9531 42.9688H28.9648L29.4922 45.3125H20.4844ZM47.6562 40.2344C47.656 40.5451 47.5324 40.843 47.3127 41.0627C47.093 41.2824 46.7951 41.406 46.4844 41.4062H3.51562C3.2049 41.406 2.90698 41.2824 2.68727 41.0627C2.46756 40.843 2.34401 40.5451 2.34375 40.2344V39.0625H47.6562V40.2344ZM47.6562 37.5H42.9688V37.4375C42.9747 35.4989 42.3224 33.6157 41.1187 32.0961C39.915 30.5765 38.2312 29.5104 36.3428 29.0723L29.6875 27.5059V26.5625C29.8947 26.5625 30.0934 26.4802 30.2399 26.3337C30.3864 26.1872 30.4688 25.9885 30.4688 25.7812V25.3779C31.4287 24.7339 32.2157 23.8639 32.7606 22.8444C33.3055 21.825 33.5916 20.6872 33.5938 19.5312H34.375C34.9963 19.5304 35.592 19.2832 36.0314 18.8439C36.4707 18.4045 36.7179 17.8088 36.7188 17.1875V14.0625C36.7182 13.5781 36.5677 13.1057 36.2879 12.7102C36.0081 12.3146 35.6128 12.0154 35.1562 11.8535V11.7188H46.4844C46.7951 11.719 47.093 11.8426 47.3127 12.0623C47.5324 12.282 47.656 12.5799 47.6562 12.8906V37.5Z" fill="#1663F9"/>
<path id="Vector_11" d="M39.8438 47.6562H39.0625C38.8553 47.6562 38.6566 47.7386 38.5101 47.8851C38.3636 48.0316 38.2812 48.2303 38.2812 48.4375C38.2812 48.6447 38.3636 48.8434 38.5101 48.9899C38.6566 49.1364 38.8553 49.2188 39.0625 49.2188H39.8438C40.051 49.2188 40.2497 49.1364 40.3962 48.9899C40.5427 48.8434 40.625 48.6447 40.625 48.4375C40.625 48.2303 40.5427 48.0316 40.3962 47.8851C40.2497 47.7386 40.051 47.6562 39.8438 47.6562Z" fill="#1663F9"/>
</g>
</g>
</g>
<defs>
<clipPath id="clip0_121_2156">
<rect width="50" height="50" fill="white"/>
</clipPath>
</defs>
</svg>
