<svg width="50" height="50" viewBox="0 0 50 50" fill="none" xmlns="http://www.w3.org/2000/svg">
<g clip-path="url(#clip0_121_2399)">
<path d="M41.5349 38.9951H8.46484V21.071C8.46484 11.9776 15.8365 4.60596 24.9299 4.60596H25.0698C34.1632 4.60596 41.5348 11.9776 41.5348 21.071V38.9951H41.5349Z" fill="#FF5E57"/>
<path d="M25.0703 4.60498H24.9303C24.453 4.60498 23.9807 4.62649 23.5137 4.66633C31.9437 5.38486 38.5621 12.454 38.5621 21.0701V38.9943H41.5353V21.07C41.5353 11.9767 34.1637 4.60498 25.0703 4.60498Z" fill="#F7372F"/>
<path d="M19.9609 38.9941V22.8139C19.9609 20.0701 22.1931 17.8379 24.9369 17.8379H25.0621C27.8059 17.8379 30.0381 20.0701 30.0381 22.8139V38.9941H19.9609Z" fill="#DE2A2E"/>
<path d="M47.1764 50.0002H2.82282C1.91143 50.0002 1.29914 49.0669 1.66346 48.2329L5.81309 38.7317C6.26898 37.6878 7.30664 37.0122 8.4539 37.0122H41.5454C42.6926 37.0122 43.7303 37.6878 44.1862 38.7317L48.3358 48.2329C48.6999 49.067 48.0878 50.0002 47.1764 50.0002Z" fill="#C2D8ED"/>
<path d="M48.3359 48.2329L44.1863 38.7317C43.7304 37.6878 42.6928 37.0122 41.5455 37.0122H38.5723C39.7195 37.0122 40.7572 37.6879 41.2131 38.7317L45.3627 48.2329C45.7269 49.067 45.1147 50.0002 44.2034 50.0002H47.1766C48.088 50.0002 48.7002 49.067 48.3359 48.2329Z" fill="#B4CAE0"/>
<path d="M36.4473 21.7438C36.0368 21.7438 35.704 21.4111 35.704 21.0005C35.704 15.1511 30.9019 10.3924 24.9992 10.3924C24.5887 10.3924 24.2559 10.0597 24.2559 9.64907C24.2559 9.23847 24.5887 8.90576 24.9992 8.90576C31.7216 8.90576 37.1907 14.3315 37.1907 21.0005C37.1907 21.4111 36.8578 21.7438 36.4473 21.7438Z" fill="white"/>
</g>
<defs>
<clipPath id="clip0_121_2399">
<rect width="50" height="50" fill="white"/>
</clipPath>
</defs>
</svg>
