<svg width="50" height="50" viewBox="0 0 50 50" fill="none" xmlns="http://www.w3.org/2000/svg">
<g id="001-tap">
<path id="Vector" d="M36.0249 23.3048C36.0249 21.6946 34.6689 20.3387 33.0588 20.3387C31.4486 20.3387 30.0927 21.6946 30.0927 23.3048V22.881V19.9149C30.0927 18.3048 28.7367 16.9488 27.1265 16.9488C25.5164 16.9488 24.1604 18.3048 24.1604 19.9149V20.3387V9.83017C24.1604 8.13525 22.8045 6.7793 21.1943 6.7793C19.5842 6.7793 18.2282 8.13525 18.2282 9.83017V29.6606L16.957 27.542C15.4316 24.8301 11.957 23.6436 9.58416 24.5759C9.24519 24.6606 8.99089 24.8301 8.7367 25.0844C7.88923 25.5929 8.05877 26.3556 8.05877 26.5251C8.05877 26.6946 12.2961 31.1861 14.6689 35.6776C14.6689 35.6776 16.7876 39.0675 19.0757 41.5251V44.0675C19.0757 47.881 22.2112 49.9997 25.8553 49.9997H33.3977C36.2791 49.9997 38.9062 48.4743 39.5842 45.5082C39.7537 44.8302 40.0079 43.8133 40.5164 43.3048C41.1943 42.5421 41.9571 40.5928 41.9571 37.9658V26.6946C41.9571 25.0845 40.6011 23.7285 38.991 23.7285C37.3808 23.7285 36.0249 25.0845 36.0249 26.6946V26.2709V23.3048Z" fill="#FDC794"/>
<g id="Group">
<path id="Vector_2" d="M22.041 44.7461C21.8714 44.7461 21.6172 44.6614 21.5325 44.5766C20.8545 43.9834 20.2613 43.3054 19.7528 42.6275C19.5833 42.458 19.4986 42.2885 19.3291 42.119C18.9901 41.78 19.0749 41.1868 19.4138 40.9326C19.7528 40.5936 20.346 40.6784 20.6002 41.0173C20.7698 41.1869 20.9392 41.4411 21.024 41.6106C21.5325 42.2039 21.9562 42.797 22.5494 43.3055C22.8883 43.6445 22.9731 44.153 22.6341 44.4919C22.4647 44.5766 22.2952 44.7461 22.041 44.7461Z" fill="#F9A671"/>
<path id="Vector_3" d="M19.0753 32.2035C18.7363 32.2035 18.482 32.034 18.3126 31.7798L17.4651 30.0849C17.2109 29.6611 17.3804 29.1526 17.8041 28.9832C18.2278 28.729 18.7363 28.8984 18.9058 29.3222L19.7532 31.0171C20.0074 31.4408 19.838 31.9493 19.4143 32.1187C19.4143 32.2035 19.2448 32.2035 19.0753 32.2035Z" fill="#F9A671"/>
<path id="Vector_4" d="M24.16 31.356C23.6515 31.356 23.3125 31.017 23.3125 30.5085V19.4915C23.3125 18.983 23.6515 18.644 24.16 18.644C24.6685 18.644 25.0074 18.983 25.0074 19.4915V30.5085C25.0074 31.017 24.6685 31.356 24.16 31.356Z" fill="#F9A671"/>
<path id="Vector_5" d="M30.0916 30.5088C29.5831 30.5088 29.2441 30.1698 29.2441 29.6613V22.8816C29.2441 22.3731 29.5831 22.0342 30.0916 22.0342C30.6001 22.0342 30.9391 22.3731 30.9391 22.8816V29.6613C30.9391 30.1698 30.6 30.5088 30.0916 30.5088Z" fill="#F9A671"/>
<path id="Vector_6" d="M36.0252 30.5934C35.5167 30.5934 35.1777 30.2544 35.1777 29.7459V26.2713C35.1777 25.7628 35.5167 25.4238 36.0252 25.4238C36.5337 25.4238 36.8727 25.7628 36.8727 26.2713V29.7459C36.8727 30.2543 36.5337 30.5934 36.0252 30.5934Z" fill="#F9A671"/>
<path id="Vector_7" d="M36.8715 45.763C36.5325 45.763 36.1936 45.5088 36.0241 45.1698C35.9393 44.746 36.1936 44.2375 36.6173 44.1528C38.2275 43.729 38.397 43.4748 38.9055 42.7968C39.1597 42.4578 39.753 42.3731 40.0919 42.6273C40.4309 42.8815 40.5156 43.39 40.2614 43.8137C39.4988 44.9154 38.9055 45.3391 37.0411 45.8476C37.041 45.763 36.9563 45.763 36.8715 45.763Z" fill="#F9A671"/>
</g>
<g id="Group_2">
<path id="Vector_8" d="M21.617 4.2373C21.1085 4.2373 20.7695 3.89834 20.7695 3.38984V0.847461C20.7695 0.338965 21.1085 0 21.617 0C22.1255 0 22.4645 0.338965 22.4645 0.847461V3.38984C22.4645 3.89834 22.1255 4.2373 21.617 4.2373Z" fill="#71C386"/>
<path id="Vector_9" d="M14.923 10.1695H12.3807C11.8722 10.1695 11.5332 9.83057 11.5332 9.32207C11.5332 8.81357 11.8722 8.47461 12.3807 8.47461H14.923C15.4315 8.47461 15.7705 8.81357 15.7705 9.32207C15.7705 9.83047 15.3468 10.1695 14.923 10.1695Z" fill="#71C386"/>
<path id="Vector_10" d="M30.093 10.1695H27.5506C27.0421 10.1695 26.7031 9.83057 26.7031 9.32207C26.7031 8.81357 27.0421 8.47461 27.5506 8.47461H30.093C30.6015 8.47461 30.9404 8.81357 30.9404 9.32207C30.9404 9.83047 30.5167 10.1695 30.093 10.1695Z" fill="#71C386"/>
<path id="Vector_11" d="M25.8553 5.93225C25.6011 5.93225 25.4316 5.84749 25.262 5.67805C24.9231 5.33909 24.9231 4.83059 25.262 4.49163L26.957 2.7967C27.2959 2.45774 27.8044 2.45774 28.1434 2.7967C28.4823 3.13567 28.4823 3.64416 28.1434 3.98313L26.4485 5.67805C26.279 5.84749 26.1095 5.93225 25.8553 5.93225Z" fill="#71C386"/>
<path id="Vector_12" d="M16.6186 5.93225C16.3644 5.93225 16.1949 5.84749 16.0253 5.67805L14.3304 3.98313C13.9914 3.64416 13.9914 3.13567 14.3304 2.7967C14.6694 2.45774 15.1779 2.45774 15.5168 2.7967L17.2117 4.49163C17.5507 4.83059 17.5507 5.33909 17.2117 5.67805C17.0423 5.84749 16.7881 5.93225 16.6186 5.93225Z" fill="#71C386"/>
</g>
</g>
</svg>
