<svg width="29" height="30" viewBox="0 0 29 30" fill="none" xmlns="http://www.w3.org/2000/svg">
<g id="Group 1000005811">
<path id="Vector" d="M13.3495 1.6497C13.9237 1.994 14.5797 2.1773 15.2491 2.18039C15.9184 2.18324 16.5761 2.00563 17.1531 1.66609L18.3576 0.958246L17.9535 0.734338C16.2814 -0.191663 14.2427 -0.157015 12.6034 0.825753C12.4709 0.905059 12.3315 0.967267 12.1934 1.03375C12.4412 1.13158 12.6811 1.24983 12.9097 1.38683L13.3495 1.6497Z" fill="#F5953A"/>
<path id="Vector_2" d="M26.2186 1.70764L26.1165 1.56517C25.5787 0.80463 24.7743 0.274887 23.8632 0.081165C22.9524 -0.112825 22.0017 0.0438868 21.201 0.519481L17.6907 2.58192C16.9489 3.01834 16.1034 3.24679 15.2427 3.24296C14.3822 3.23916 13.5385 3.00362 12.8005 2.56077L12.3608 2.29483C11.676 1.87955 10.8749 1.69767 10.0778 1.77674C9.28094 1.85557 8.53109 2.19107 7.94105 2.73246L6.55819 3.99041L5.84421 3.20495L7.22707 1.94766V1.94743C7.51627 1.68458 7.83589 1.45735 8.17921 1.27095C7.86745 1.16956 7.56637 1.03826 7.27977 0.878933C7.26315 0.871573 7.247 0.863263 7.23133 0.854002C6.28442 0.301234 5.16063 0.135764 4.09452 0.392411C3.0284 0.649089 2.10283 1.30778 1.51115 2.23092L1.268 2.61178H1.26824C0.0385585 4.52602 -0.317156 6.87336 0.289966 9.06594L1.92454 14.9512L6.1688 28.6272C6.33667 29.1681 6.73154 29.609 7.25035 29.8358C7.7694 30.0623 8.36108 30.0521 8.87186 29.8076C9.38283 29.5632 9.76206 29.1088 9.91116 28.5624L12.3238 19.7164H12.3236C12.4724 19.1693 12.8552 18.7155 13.3695 18.4767C13.8835 18.2378 14.4772 18.2378 14.9912 18.4767C15.5055 18.7155 15.8883 19.1693 16.0372 19.7164L18.5146 28.8001C18.6376 29.2508 18.9484 29.6271 19.3678 29.833C19.7871 30.0391 20.2746 30.0552 20.7067 29.8771C21.1386 29.6993 21.4734 29.3443 21.6261 28.9027L26.4373 14.947L27.7323 10.2858C28.1388 8.83379 28.2139 7.30918 27.9517 5.82444C27.6898 4.3397 27.0974 2.93265 26.2186 1.70764ZM2.57622 2.03578L3.44642 2.64741H3.44618C3.22133 2.967 3.01855 3.30158 2.83928 3.64896L1.89425 3.16173C2.09537 2.77114 2.32309 2.39503 2.57622 2.03578ZM2.54963 13.6658L1.24536 9.36976C0.738425 7.66091 0.810126 5.83237 1.44909 4.16813L2.44633 4.54044C1.88905 5.98621 1.82492 7.57544 2.2635 9.06133L3.56752 13.3562L2.54963 13.6658Z" fill="#F5953A"/>
</g>
</svg>
